<svg width="28" height="28" viewBox="0 0 28 28" fill="none" xmlns="http://www.w3.org/2000/svg">
<path d="M5.6 11.6H8C10.4 11.6 11.6 10.4 11.6 8V5.6C11.6 3.2 10.4 2 8 2H5.6C3.2 2 2 3.2 2 5.6V8C2 10.4 3.2 11.6 5.6 11.6Z" stroke="#0C6862" stroke-width="3" stroke-miterlimit="10" stroke-linecap="round" stroke-linejoin="round"/>
<path d="M19.9999 11.6H22.3999C24.7999 11.6 25.9999 10.4 25.9999 8V5.6C25.9999 3.2 24.7999 2 22.3999 2H19.9999C17.5999 2 16.3999 3.2 16.3999 5.6V8C16.3999 10.4 17.5999 11.6 19.9999 11.6Z" stroke="#0C6862" stroke-width="3" stroke-miterlimit="10" stroke-linecap="round" stroke-linejoin="round"/>
<path d="M19.9999 25.9999H22.3999C24.7999 25.9999 25.9999 24.7999 25.9999 22.3999V19.9999C25.9999 17.5999 24.7999 16.3999 22.3999 16.3999H19.9999C17.5999 16.3999 16.3999 17.5999 16.3999 19.9999V22.3999C16.3999 24.7999 17.5999 25.9999 19.9999 25.9999Z" stroke="#0C6862" stroke-width="3" stroke-miterlimit="10" stroke-linecap="round" stroke-linejoin="round"/>
<path d="M5.6 25.9999H8C10.4 25.9999 11.6 24.7999 11.6 22.3999V19.9999C11.6 17.5999 10.4 16.3999 8 16.3999H5.6C3.2 16.3999 2 17.5999 2 19.9999V22.3999C2 24.7999 3.2 25.9999 5.6 25.9999Z" stroke="#0C6862" stroke-width="3" stroke-miterlimit="10" stroke-linecap="round" stroke-linejoin="round"/>
</svg>
