<svg width="24" height="24" viewBox="0 0 24 24" fill="none" xmlns="http://www.w3.org/2000/svg">
<path d="M23.2267 9.81302L12.9467 0.355033C12.8228 0.242535 12.6753 0.153243 12.5128 0.0923077C12.3504 0.0313725 12.1761 0 12.0001 0C11.8241 0 11.6498 0.0313725 11.4873 0.0923077C11.3248 0.153243 11.1774 0.242535 11.0534 0.355033L0.773482 9.82502C0.524733 10.0508 0.328278 10.3187 0.195523 10.6134C0.0627687 10.908 -0.00363968 11.2234 0.000153818 11.5414V21.5995C-0.000879274 22.2139 0.25985 22.8053 0.728648 23.2519C1.19745 23.6985 1.83862 23.9662 2.52014 24H21.48C22.1615 23.9662 22.8027 23.6985 23.2715 23.2519C23.7403 22.8053 24.001 22.2139 24 21.5995V11.5414C24.0011 10.8968 23.7238 10.277 23.2267 9.81302ZM9.33343 21.5995V14.398H14.6667V21.5995H9.33343ZM21.3333 21.5995H17.3334V13.1977C17.3334 12.8794 17.1929 12.5741 16.9429 12.349C16.6928 12.1239 16.3537 11.9975 16 11.9975H8.0001C7.64648 11.9975 7.30735 12.1239 7.0573 12.349C6.80725 12.5741 6.66678 12.8794 6.66678 13.1977V21.5995H2.6668V11.4934L12.0001 2.91157L21.3333 11.5414V21.5995Z" fill="#4C4A4A"/>
</svg>
