<svg width="27" height="20" viewBox="0 0 27 20" fill="none" xmlns="http://www.w3.org/2000/svg">
<path d="M5.79208 5.37354L6.25107 5.83254L5.79208 5.37354ZM5.79208 5.37354C5.79095 5.37513 5.78983 5.37672 5.78871 5.37831C5.67387 5.54077 5.56035 5.70351 5.44969 5.86579L5.80837 5.35051C5.80373 5.35706 5.79909 5.36362 5.79446 5.37017C5.79366 5.3713 5.79287 5.37242 5.79208 5.37354Z" fill="#0C6862" stroke="#0C6862" stroke-width="5"/>
<mask id="path-2-inside-1_547_9138" fill="white">
<path d="M26.1567 15.5964H23.2504C23.1671 15.597 23.0845 15.5802 23.008 15.5471C22.9315 15.514 22.8628 15.4654 22.8061 15.4042C22.7499 15.3431 22.7071 15.271 22.6802 15.1924C22.6533 15.1139 22.643 15.0306 22.65 14.9479C22.7356 13.6197 22.5789 12.2869 22.1876 11.0148L23.3465 10.6845C23.7086 11.888 23.8887 13.1388 23.8809 14.3955H25.5563V1.43122L20.7525 3.04049L20.3682 1.89959L25.9886 0.0321187C26.0784 0.00149215 26.1743 -0.00740132 26.2682 0.00616792C26.3621 0.0197372 26.4515 0.0553826 26.529 0.11018C26.6075 0.166022 26.6713 0.239906 26.7152 0.325601C26.7591 0.411296 26.7817 0.506289 26.7812 0.602569V15.0139C26.7789 15.0933 26.7609 15.1715 26.7281 15.2438C26.6954 15.3162 26.6487 15.3814 26.5906 15.4355C26.5325 15.4897 26.4642 15.5318 26.3898 15.5594C26.3153 15.587 26.2361 15.5996 26.1567 15.5964Z"/>
</mask>
<path d="M26.1567 15.5964H23.2504C23.1671 15.597 23.0845 15.5802 23.008 15.5471C22.9315 15.514 22.8628 15.4654 22.8061 15.4042C22.7499 15.3431 22.7071 15.271 22.6802 15.1924C22.6533 15.1139 22.643 15.0306 22.65 14.9479C22.7356 13.6197 22.5789 12.2869 22.1876 11.0148L23.3465 10.6845C23.7086 11.888 23.8887 13.1388 23.8809 14.3955H25.5563V1.43122L20.7525 3.04049L20.3682 1.89959L25.9886 0.0321187C26.0784 0.00149215 26.1743 -0.00740132 26.2682 0.00616792C26.3621 0.0197372 26.4515 0.0553826 26.529 0.11018C26.6075 0.166022 26.6713 0.239906 26.7152 0.325601C26.7591 0.411296 26.7817 0.506289 26.7812 0.602569V15.0139C26.7789 15.0933 26.7609 15.1715 26.7281 15.2438C26.6954 15.3162 26.6487 15.3814 26.5906 15.4355C26.5325 15.4897 26.4642 15.5318 26.3898 15.5594C26.3153 15.587 26.2361 15.5996 26.1567 15.5964Z" fill="#0C6862"/>
<path d="M26.1567 15.5964L26.3589 10.6005L26.2578 10.5964H26.1567V15.5964ZM23.2504 15.5964V10.5964H23.2335L23.2166 10.5965L23.2504 15.5964ZM22.8061 15.4042L19.1236 18.7864L19.1317 18.7953L19.1399 18.8041L22.8061 15.4042ZM22.65 14.9479L27.6325 15.3657L27.6365 15.3176L27.6396 15.2695L22.65 14.9479ZM22.1876 11.0148L20.8173 6.20623L15.9077 7.60533L17.4086 12.4848L22.1876 11.0148ZM23.3465 10.6845L28.1345 9.24402L26.7149 4.52555L21.9762 5.87597L23.3465 10.6845ZM23.8809 14.3955L18.881 14.3645L18.8499 19.3955H23.8809V14.3955ZM25.5563 14.3955V19.3955H30.5563V14.3955H25.5563ZM25.5563 1.43122H30.5563V-5.51688L23.968 -3.30982L25.5563 1.43122ZM20.7525 3.04049L16.0141 4.63659L17.6075 9.36716L22.3407 7.78153L20.7525 3.04049ZM20.3682 1.89959L18.7916 -2.84534L14.0271 -1.26226L15.6298 3.49569L20.3682 1.89959ZM25.9886 0.0321187L27.5652 4.77705L27.5836 4.77094L27.602 4.76468L25.9886 0.0321187ZM26.529 0.11018L29.429 -3.96295L29.4223 -3.96768L29.4157 -3.97238L26.529 0.11018ZM26.7812 0.602569L21.7813 0.575703L21.7812 0.589136V0.602569H26.7812ZM26.7812 15.0139L31.7791 15.1599L31.7812 15.0869V15.0139H26.7812ZM26.1567 10.5964H23.2504V20.5964H26.1567V10.5964ZM23.2166 10.5965C23.8272 10.5924 24.4321 10.7154 24.9926 10.9578L21.0235 20.1364C21.737 20.4449 22.5069 20.6015 23.2843 20.5963L23.2166 10.5965ZM24.9926 10.9578C25.5531 11.2002 26.057 11.5566 26.4723 12.0044L19.1399 18.8041C19.6685 19.3741 20.31 19.8278 21.0235 20.1364L24.9926 10.9578ZM26.4886 12.0221C26.9 12.47 27.2141 12.9985 27.411 13.574L17.9494 16.8109C18.2 17.5435 18.5998 18.2162 19.1236 18.7864L26.4886 12.0221ZM27.411 13.574C27.6079 14.1495 27.6833 14.7596 27.6325 15.3657L17.6675 14.5301C17.6027 15.3017 17.6987 16.0783 17.9494 16.8109L27.411 13.574ZM27.6396 15.2695C27.7642 13.3362 27.5362 11.3965 26.9666 9.54481L17.4086 12.4848C17.6216 13.1774 17.7069 13.9031 17.6603 14.6263L27.6396 15.2695ZM23.5579 15.8233L24.7168 15.4931L21.9762 5.87597L20.8173 6.20623L23.5579 15.8233ZM18.5585 12.125C18.777 12.8513 18.8857 13.6061 18.881 14.3645L28.8808 14.4264C28.8917 12.6714 28.6401 10.9246 28.1345 9.24402L18.5585 12.125ZM23.8809 19.3955H25.5563V9.39545H23.8809V19.3955ZM30.5563 14.3955V1.43122H20.5563V14.3955H30.5563ZM23.968 -3.30982L19.1642 -1.70055L22.3407 7.78153L27.1445 6.17226L23.968 -3.30982ZM25.4909 1.4444L25.1066 0.303499L15.6298 3.49569L16.0141 4.63659L25.4909 1.4444ZM21.9447 6.64453L27.5652 4.77705L24.412 -4.71282L18.7916 -2.84534L21.9447 6.64453ZM27.602 4.76468C26.9437 4.98907 26.2417 5.05423 25.5534 4.95481L26.983 -4.94247C26.1068 -5.06903 25.2131 -4.98608 24.3752 -4.70044L27.602 4.76468ZM25.5534 4.95481C24.8651 4.85539 24.2102 4.59424 23.6424 4.19274L29.4157 -3.97238C28.6928 -4.48347 27.8591 -4.81592 26.983 -4.94247L25.5534 4.95481ZM23.6291 4.18331C23.0544 3.77415 22.5866 3.2328 22.265 2.60498L31.1654 -1.95378C30.7561 -2.75299 30.1605 -3.4421 29.429 -3.96295L23.6291 4.18331ZM22.265 2.60498C21.9434 1.97714 21.7775 1.28115 21.7813 0.575703L31.7812 0.629435C31.786 -0.268571 31.5748 -1.15454 31.1654 -1.95378L22.265 2.60498ZM21.7812 0.602569V15.0139H31.7812V0.602569H21.7812ZM21.7834 14.868C21.8003 14.2864 21.9325 13.7139 22.1723 13.1836L31.284 17.3041C31.5892 16.6291 31.7575 15.9002 31.7791 15.1599L21.7834 14.868ZM22.1723 13.1836C22.4121 12.6534 22.7547 12.176 23.1802 11.7791L30.0009 19.092C30.5426 18.5868 30.9787 17.9791 31.284 17.3041L22.1723 13.1836ZM23.1802 11.7791C23.6058 11.3822 24.1058 11.0737 24.6515 10.8713L28.1281 20.2475C28.8227 19.99 29.4592 19.5972 30.0009 19.092L23.1802 11.7791ZM24.6515 10.8713C25.1971 10.669 25.7774 10.577 26.3589 10.6005L25.9546 20.5923C26.6947 20.6223 27.4335 20.5051 28.1281 20.2475L24.6515 10.8713Z" fill="#0C6862" mask="url(#path-2-inside-1_547_9138)"/>
<mask id="path-4-inside-2_547_9138" fill="white">
<path d="M4.02322 16.4372H0.600515C0.441259 16.4372 0.288526 16.374 0.175916 16.2613C0.063305 16.1487 4.09886e-05 15.996 4.09886e-05 15.8367V2.52424C-0.00129915 2.40953 0.0302482 2.29683 0.0909503 2.19949C0.151652 2.10215 0.238968 2.02423 0.342567 1.97496C0.446165 1.92568 0.56171 1.90712 0.675529 1.92146C0.789348 1.9358 0.896678 1.98244 0.984818 2.05587C2.44893 3.27996 4.14071 4.20238 5.96275 4.77001C6.10146 4.81304 6.21988 4.9049 6.29606 5.02856C6.37224 5.15221 6.40102 5.29929 6.37707 5.44254L4.61769 15.9388C4.59354 16.0788 4.52057 16.2057 4.41173 16.2969C4.3029 16.3881 4.16524 16.4379 4.02322 16.4372ZM1.20099 15.2363H3.51882L5.11007 5.75479C3.71835 5.27012 2.40226 4.59085 1.20099 3.73719V15.2363Z"/>
</mask>
<path d="M4.02322 16.4372H0.600515C0.441259 16.4372 0.288526 16.374 0.175916 16.2613C0.063305 16.1487 4.09886e-05 15.996 4.09886e-05 15.8367V2.52424C-0.00129915 2.40953 0.0302482 2.29683 0.0909503 2.19949C0.151652 2.10215 0.238968 2.02423 0.342567 1.97496C0.446165 1.92568 0.56171 1.90712 0.675529 1.92146C0.789348 1.9358 0.896678 1.98244 0.984818 2.05587C2.44893 3.27996 4.14071 4.20238 5.96275 4.77001C6.10146 4.81304 6.21988 4.9049 6.29606 5.02856C6.37224 5.15221 6.40102 5.29929 6.37707 5.44254L4.61769 15.9388C4.59354 16.0788 4.52057 16.2057 4.41173 16.2969C4.3029 16.3881 4.16524 16.4379 4.02322 16.4372ZM1.20099 15.2363H3.51882L5.11007 5.75479C3.71835 5.27012 2.40226 4.59085 1.20099 3.73719V15.2363Z" fill="#0C6862"/>
<path d="M4.02322 16.4372L4.04599 11.4373L4.0346 11.4372H4.02322V16.4372ZM4.09886e-05 15.8367H-4.99996H4.09886e-05ZM4.09886e-05 2.52424H5.00004V2.49503L4.9997 2.46583L4.09886e-05 2.52424ZM0.984818 2.05587L4.19193 -1.78009L4.18516 -1.78572L0.984818 2.05587ZM5.96275 4.77001L4.47556 9.54372L4.4812 9.54547L5.96275 4.77001ZM6.37707 5.44254L11.3083 6.26911L11.3086 6.26708L6.37707 5.44254ZM4.61769 15.9388L9.54491 16.7888L9.54693 16.7771L9.54889 16.7654L4.61769 15.9388ZM1.20099 15.2363H-3.79901V20.2363H1.20099V15.2363ZM3.51882 15.2363V20.2363H7.74961L8.44986 16.0638L3.51882 15.2363ZM5.11007 5.75479L10.0411 6.58235L10.7395 2.42072L6.75445 1.03292L5.11007 5.75479ZM1.20099 3.73719L4.09729 -0.338518L-3.79901 -5.94983L-3.79901 3.73719H1.20099ZM4.02322 11.4372H0.600515V21.4372H4.02322V11.4372ZM0.600515 11.4372C1.76738 11.4372 2.88641 11.9008 3.71145 12.7258L-3.35962 19.7969C-2.30935 20.8471 -0.884863 21.4372 0.600515 21.4372V11.4372ZM3.71145 12.7258C4.53651 13.5509 5.00004 14.6699 5.00004 15.8367H-4.99996C-4.99996 17.3221 -4.4099 18.7466 -3.35962 19.7969L3.71145 12.7258ZM5.00004 15.8367V2.52424H-4.99996V15.8367H5.00004ZM4.9997 2.46583C5.00952 3.30629 4.77838 4.13197 4.33363 4.84518L-4.15173 -0.446201C-4.71788 0.461694 -5.01212 1.51277 -4.99962 2.58265L4.9997 2.46583ZM4.33363 4.84518C3.88888 5.55839 3.24914 6.12927 2.4901 6.49028L-1.80496 -2.54036C-2.7712 -2.08081 -3.58558 -1.35409 -4.15173 -0.446201L4.33363 4.84518ZM2.4901 6.49028C1.73105 6.85129 0.884481 6.9873 0.0505644 6.88225L1.30049 -3.03933C0.238938 -3.17307 -0.838719 -2.99992 -1.80496 -2.54036L2.4901 6.49028ZM0.0505644 6.88225C-0.783364 6.77719 -1.56974 6.43544 -2.21552 5.89746L4.18516 -1.78572C3.3631 -2.47056 2.36206 -2.90559 1.30049 -3.03933L0.0505644 6.88225ZM-2.22228 5.89182C-0.252305 7.53885 2.02399 8.77996 4.47556 9.54372L7.44993 -0.00369835C6.25742 -0.375209 5.15017 -0.978921 4.19192 -1.78008L-2.22228 5.89182ZM4.4812 9.54547C3.46486 9.23016 2.59724 8.55717 2.03908 7.65116L10.553 2.40595C9.84252 1.25263 8.73807 0.395931 7.44429 -0.0054518L4.4812 9.54547ZM2.03908 7.65116C1.48091 6.74516 1.27005 5.66756 1.44553 4.618L11.3086 6.26708C11.532 4.93102 11.2636 3.55926 10.553 2.40595L2.03908 7.65116ZM1.44587 4.61597L-0.31352 15.1123L9.54889 16.7654L11.3083 6.26911L1.44587 4.61597ZM-0.309544 15.0889C-0.132653 14.0634 0.401991 13.1339 1.19941 12.4653L7.62406 20.1285C8.63915 19.2774 9.31974 18.0941 9.54491 16.7888L-0.309544 15.0889ZM1.19941 12.4653C1.99681 11.7968 3.00538 11.4325 4.04599 11.4373L4.00045 21.4372C5.32511 21.4432 6.60899 20.9795 7.62406 20.1285L1.19941 12.4653ZM1.20099 20.2363H3.51882V10.2363H1.20099V20.2363ZM8.44986 16.0638L10.0411 6.58235L0.179035 4.92722L-1.41222 14.4087L8.44986 16.0638ZM6.75445 1.03292C5.80845 0.703475 4.91385 0.241747 4.09729 -0.338518L-1.69532 7.81291C-0.109322 8.93995 1.62826 9.83677 3.46569 10.4767L6.75445 1.03292ZM-3.79901 3.73719V15.2363H6.20099V3.73719H-3.79901Z" fill="#0C6862" mask="url(#path-4-inside-2_547_9138)"/>
<mask id="path-6-inside-3_547_9138" fill="white">
<path d="M11.8416 19.9976C11.6398 20.0029 11.438 19.9827 11.2412 19.9376C8.63614 18.9149 6.10595 17.711 3.66919 16.3347L4.37174 15.3439C6.70055 16.6345 9.10705 17.7796 11.5774 18.7726C12.1457 18.8625 12.7266 18.7291 13.1987 18.4003C13.2344 18.3689 13.2593 18.3271 13.2701 18.2809C13.2808 18.2346 13.2769 18.1861 13.2588 18.1421C13.2271 18.0296 13.229 17.9103 13.2642 17.7988C13.2994 17.6873 13.3664 17.5885 13.4569 17.5146C13.5475 17.4406 13.6576 17.3947 13.7739 17.3824C13.8902 17.3702 14.0075 17.3921 14.1114 17.4456C14.3465 17.5712 14.6181 17.6105 14.8792 17.5568C15.1402 17.5031 15.3742 17.3596 15.5406 17.1514C15.6186 17.0553 15.8648 16.713 15.6366 16.4248C15.5468 16.3169 15.4976 16.1809 15.4976 16.0405C15.4976 15.9001 15.5468 15.7641 15.6366 15.6562C15.729 15.5512 15.8552 15.4817 15.9933 15.4598C16.1314 15.4379 16.2729 15.4649 16.3932 15.5361C16.5806 15.5661 16.7725 15.5513 16.9531 15.4928C17.1336 15.4344 17.2978 15.334 17.4321 15.1998C17.5352 15.0962 17.5969 14.9585 17.6058 14.8126C17.6146 14.6667 17.5699 14.5225 17.4801 14.4072C17.4274 14.3159 17.3996 14.2124 17.3996 14.107C17.3996 14.0016 17.4274 13.898 17.4801 13.8067C17.532 13.7168 17.6063 13.6419 17.6957 13.5893C17.7852 13.5367 17.8867 13.5082 17.9905 13.5065C19.4556 13.4765 19.5938 13.0681 19.8279 12.3836L19.912 12.1494L21.0409 12.5637L20.9628 12.7739C20.8501 13.2795 20.577 13.735 20.1841 14.0727C19.7913 14.4103 19.2999 14.6119 18.7831 14.6474C18.8085 14.9102 18.7729 15.1753 18.6792 15.4221C18.5855 15.6689 18.4361 15.8908 18.2427 16.0705C17.8702 16.4233 17.3988 16.6537 16.8916 16.731C16.8818 17.1718 16.7207 17.5959 16.4353 17.932C16.1823 18.2362 15.8581 18.4732 15.4914 18.622C15.1248 18.7708 14.727 18.8266 14.3336 18.7847C14.2588 18.9584 14.153 19.1171 14.0214 19.253C13.4115 19.7616 12.6352 20.0268 11.8416 19.9976Z"/>
</mask>
<path d="M11.8416 19.9976C11.6398 20.0029 11.438 19.9827 11.2412 19.9376C8.63614 18.9149 6.10595 17.711 3.66919 16.3347L4.37174 15.3439C6.70055 16.6345 9.10705 17.7796 11.5774 18.7726C12.1457 18.8625 12.7266 18.7291 13.1987 18.4003C13.2344 18.3689 13.2593 18.3271 13.2701 18.2809C13.2808 18.2346 13.2769 18.1861 13.2588 18.1421C13.2271 18.0296 13.229 17.9103 13.2642 17.7988C13.2994 17.6873 13.3664 17.5885 13.4569 17.5146C13.5475 17.4406 13.6576 17.3947 13.7739 17.3824C13.8902 17.3702 14.0075 17.3921 14.1114 17.4456C14.3465 17.5712 14.6181 17.6105 14.8792 17.5568C15.1402 17.5031 15.3742 17.3596 15.5406 17.1514C15.6186 17.0553 15.8648 16.713 15.6366 16.4248C15.5468 16.3169 15.4976 16.1809 15.4976 16.0405C15.4976 15.9001 15.5468 15.7641 15.6366 15.6562C15.729 15.5512 15.8552 15.4817 15.9933 15.4598C16.1314 15.4379 16.2729 15.4649 16.3932 15.5361C16.5806 15.5661 16.7725 15.5513 16.9531 15.4928C17.1336 15.4344 17.2978 15.334 17.4321 15.1998C17.5352 15.0962 17.5969 14.9585 17.6058 14.8126C17.6146 14.6667 17.5699 14.5225 17.4801 14.4072C17.4274 14.3159 17.3996 14.2124 17.3996 14.107C17.3996 14.0016 17.4274 13.898 17.4801 13.8067C17.532 13.7168 17.6063 13.6419 17.6957 13.5893C17.7852 13.5367 17.8867 13.5082 17.9905 13.5065C19.4556 13.4765 19.5938 13.0681 19.8279 12.3836L19.912 12.1494L21.0409 12.5637L20.9628 12.7739C20.8501 13.2795 20.577 13.735 20.1841 14.0727C19.7913 14.4103 19.2999 14.6119 18.7831 14.6474C18.8085 14.9102 18.7729 15.1753 18.6792 15.4221C18.5855 15.6689 18.4361 15.8908 18.2427 16.0705C17.8702 16.4233 17.3988 16.6537 16.8916 16.731C16.8818 17.1718 16.7207 17.5959 16.4353 17.932C16.1823 18.2362 15.8581 18.4732 15.4914 18.622C15.1248 18.7708 14.727 18.8266 14.3336 18.7847C14.2588 18.9584 14.153 19.1171 14.0214 19.253C13.4115 19.7616 12.6352 20.0268 11.8416 19.9976Z" fill="#0C6862"/>
<path d="M11.8416 19.9976L12.0255 15.001L11.8679 14.9952L11.7102 14.9993L11.8416 19.9976ZM11.2412 19.9376L9.41407 24.5918L9.76018 24.7276L10.1226 24.8108L11.2412 19.9376ZM3.66919 16.3347L-0.409473 13.4426L-3.61489 17.963L1.21026 20.6883L3.66919 16.3347ZM4.37174 15.3439L6.79534 10.9706L2.88141 8.80159L0.293082 12.4518L4.37174 15.3439ZM11.5774 18.7726L9.71255 23.4118L10.2374 23.6228L10.7961 23.7112L11.5774 18.7726ZM13.1987 18.4003L16.0562 22.5033L16.2906 22.3401L16.5049 22.1512L13.1987 18.4003ZM13.2588 18.1421L8.44545 19.4957L8.52485 19.7781L8.63673 20.0492L13.2588 18.1421ZM14.1114 17.4456L16.4678 13.0357L16.4331 13.0171L16.3981 12.9991L14.1114 17.4456ZM15.5406 17.1514L11.66 13.9984L11.6468 14.0146L11.6338 14.0309L15.5406 17.1514ZM15.6366 16.4248L19.5569 13.3213L19.5183 13.2725L19.4785 13.2248L15.6366 16.4248ZM15.4976 16.0405H10.4975H15.4976ZM15.6366 15.6562L11.883 12.3531L11.8382 12.4041L11.7948 12.4562L15.6366 15.6562ZM16.3932 15.5361L13.8469 19.8391L14.6644 20.3229L15.6023 20.4731L16.3932 15.5361ZM17.4321 15.1998L20.9661 18.7369L20.9711 18.7318L20.9762 18.7267L17.4321 15.1998ZM17.4801 14.4072L13.15 16.9072L13.3231 17.2071L13.536 17.4803L17.4801 14.4072ZM17.4801 13.8067L21.8102 16.3067L21.8106 16.3061L17.4801 13.8067ZM17.9905 13.5065L18.071 18.5058L18.082 18.5057L18.0929 18.5054L17.9905 13.5065ZM19.8279 12.3836L15.122 10.6943L15.1093 10.7296L15.0971 10.7652L19.8279 12.3836ZM19.912 12.1494L21.6348 7.45557L16.9074 5.72053L15.206 10.4601L19.912 12.1494ZM21.0409 12.5637L25.728 14.3046L27.4757 9.59932L22.7636 7.8699L21.0409 12.5637ZM20.9628 12.7739L16.2757 11.033L16.1569 11.3528L16.0827 11.6857L20.9628 12.7739ZM18.7831 14.6474L18.4405 9.65914L13.3123 10.0114L13.8063 15.1279L18.7831 14.6474ZM18.2427 16.0705L14.8393 12.4076L14.8218 12.4238L14.8045 12.4402L18.2427 16.0705ZM16.8916 16.731L16.1384 11.7881L11.9864 12.4208L11.8929 16.6196L16.8916 16.731ZM16.4353 17.932L12.624 14.6956L12.6073 14.7153L12.5907 14.7352L16.4353 17.932ZM14.3336 18.7847L14.8641 13.8129L11.1995 13.4219L9.74152 16.8066L14.3336 18.7847ZM14.0214 19.253L17.2237 23.0929L17.4282 22.9224L17.6134 22.7311L14.0214 19.253ZM11.7102 14.9993C11.9286 14.9936 12.1468 15.0154 12.3597 15.0643L10.1226 24.8108C10.7292 24.9501 11.3509 25.0122 11.9731 24.9959L11.7102 14.9993ZM13.0683 15.2833C10.6806 14.346 8.36155 13.2426 6.12812 11.9811L1.21026 20.6883C3.85036 22.1794 6.59167 23.4838 9.41407 24.5918L13.0683 15.2833ZM7.74785 19.2269L8.45041 18.2361L0.293082 12.4518L-0.409473 13.4426L7.74785 19.2269ZM1.94815 19.7173C4.45753 21.1079 7.05063 22.3418 9.71255 23.4118L13.4423 14.1334C11.1635 13.2174 8.94357 12.1611 6.79534 10.9706L1.94815 19.7173ZM10.7961 23.7112C12.6397 24.0029 14.5246 23.57 16.0562 22.5033L10.3412 14.2973C10.9287 13.8882 11.6516 13.7222 12.3587 13.8341L10.7961 23.7112ZM16.5049 22.1512C17.3218 21.4311 17.8935 20.474 18.1401 19.4134L8.40004 17.1483C8.62515 16.1803 9.14689 15.3067 9.89247 14.6495L16.5049 22.1512ZM18.1401 19.4134C18.3868 18.3528 18.2961 17.2416 17.8808 16.2351L8.63673 20.0492C8.25769 19.1305 8.1749 18.1164 8.40004 17.1483L18.1401 19.4134ZM18.0721 16.7886C18.3039 17.6132 18.2901 18.4875 18.0322 19.3043L8.49625 16.2932C8.16793 17.333 8.15028 18.446 8.44545 19.4957L18.0721 16.7886ZM18.0322 19.3043C17.7742 20.1211 17.2835 20.8449 16.6201 21.3868L10.2937 13.6423C9.44929 14.3321 8.82458 15.2535 8.49625 16.2932L18.0322 19.3043ZM16.6201 21.3868C15.9568 21.9287 15.1497 22.2651 14.2978 22.3549L13.2499 12.41C12.1656 12.5242 11.1381 12.9525 10.2937 13.6423L16.6201 21.3868ZM14.2978 22.3549C13.446 22.4447 12.5865 22.2838 11.8247 21.8921L16.3981 12.9991C15.4285 12.5005 14.3343 12.2957 13.2499 12.41L14.2978 22.3549ZM11.755 21.8555C13.0203 22.5316 14.4824 22.7434 15.8874 22.4541L13.8709 12.6595C14.7539 12.4777 15.6727 12.6108 16.4678 13.0357L11.755 21.8555ZM15.8874 22.4541C17.2925 22.1648 18.552 21.3927 19.4473 20.2718L11.6338 14.0309C12.1964 13.3265 12.9879 12.8413 13.8709 12.6595L15.8874 22.4541ZM19.4211 20.3043C19.6072 20.0754 20.142 19.3944 20.4652 18.385C20.8308 17.2433 21.0324 15.1852 19.5569 13.3213L11.7164 19.5283C10.469 17.9526 10.6616 16.2097 10.9416 15.3353C11.1793 14.5931 11.552 14.1313 11.66 13.9984L19.4211 20.3043ZM19.4785 13.2248C20.137 14.0153 20.4975 15.0116 20.4975 16.0405H10.4975C10.4975 17.3502 10.9566 18.6184 11.7948 19.6248L19.4785 13.2248ZM20.4975 16.0405C20.4975 17.0693 20.137 18.0656 19.4785 18.8562L11.7948 12.4562C10.9565 13.4625 10.4975 14.7308 10.4975 16.0405H20.4975ZM19.3903 18.9592C18.7134 19.7285 17.7891 20.2374 16.7771 20.398L15.2095 10.5216C13.9212 10.7261 12.7447 11.3739 11.883 12.3531L19.3903 18.9592ZM16.7771 20.398C15.7651 20.5586 14.7287 20.361 13.8469 19.8391L18.9396 11.233C17.817 10.5688 16.4978 10.3171 15.2095 10.5216L16.7771 20.398ZM15.6023 20.4731C16.5699 20.6282 17.5605 20.5516 18.4929 20.2498L15.4132 10.7359C15.9845 10.551 16.5914 10.5041 17.1842 10.599L15.6023 20.4731ZM18.4929 20.2498C19.4253 19.948 20.2728 19.4295 20.9661 18.7369L13.898 11.6628C14.3227 11.2384 14.842 10.9208 15.4132 10.7359L18.4929 20.2498ZM20.9762 18.7267C21.938 17.7602 22.5142 16.4761 22.5966 15.1151L12.615 14.5101C12.6797 13.4409 13.1324 12.4321 13.8879 11.6729L20.9762 18.7267ZM22.5966 15.1151C22.6791 13.754 22.2622 12.4097 21.4242 11.3341L13.536 17.4803C12.8776 16.6354 12.5502 15.5793 12.615 14.5101L22.5966 15.1151ZM21.8102 11.9072C22.1964 12.576 22.3996 13.3347 22.3996 14.107H12.3996C12.3996 15.09 12.6584 16.0558 13.15 16.9072L21.8102 11.9072ZM22.3996 14.107C22.3996 14.8792 22.1964 15.6379 21.8102 16.3067L13.15 11.3067C12.6584 12.1581 12.3996 13.1239 12.3996 14.107H22.3996ZM21.8106 16.3061C21.4305 16.9646 20.8862 17.5134 20.2308 17.899L15.1606 9.27964C14.3263 9.77042 13.6334 10.469 13.1496 11.3074L21.8106 16.3061ZM20.2308 17.899C19.5754 18.2845 18.8313 18.4936 18.071 18.5058L17.91 8.50713C16.9422 8.52272 15.9949 8.78886 15.1606 9.27964L20.2308 17.899ZM18.0929 18.5054C19.043 18.486 20.8474 18.372 22.4339 17.1424C24.0668 15.8768 24.5447 14.0432 24.5588 14.002L15.0971 10.7652C15.0091 11.0223 15.0695 10.8163 15.1928 10.5742C15.3684 10.2295 15.7101 9.70182 16.3078 9.23856C16.8811 8.79419 17.4203 8.61854 17.7008 8.55153C17.9515 8.49162 18.0557 8.5041 17.8881 8.50753L18.0929 18.5054ZM24.5339 14.0729L24.618 13.8387L15.206 10.4601L15.122 10.6943L24.5339 14.0729ZM18.1893 16.8433L19.3182 17.2576L22.7636 7.8699L21.6348 7.45557L18.1893 16.8433ZM16.3538 10.8228L16.2757 11.033L25.65 14.5148L25.728 14.3046L16.3538 10.8228ZM16.0827 11.6857C16.2047 11.1388 16.5001 10.646 16.925 10.2808L23.4432 17.8645C24.6538 16.8241 25.4956 15.4201 25.843 13.8622L16.0827 11.6857ZM16.925 10.2808C17.3499 9.9156 17.8815 9.69753 18.4405 9.65914L19.1258 19.6356C20.7182 19.5262 22.2327 18.905 23.4432 17.8645L16.925 10.2808ZM13.8063 15.1279C13.7578 14.6256 13.8257 14.1188 14.0049 13.647L23.3535 17.1972C23.7201 16.2317 23.8592 15.1948 23.76 14.1669L13.8063 15.1279ZM14.0049 13.647C14.184 13.1753 14.4696 12.7511 14.8393 12.4076L21.6461 19.7334C22.4026 19.0305 22.9869 18.1626 23.3535 17.1972L14.0049 13.647ZM14.8045 12.4402C15.1723 12.0919 15.6377 11.8644 16.1384 11.7881L17.6448 21.674C19.1599 21.4431 20.5681 20.7546 21.6809 19.7008L14.8045 12.4402ZM11.8929 16.6196C11.9086 15.9134 12.1668 15.234 12.624 14.6956L20.2465 21.1684C21.2746 19.9577 21.855 18.4303 21.8904 16.8424L11.8929 16.6196ZM12.5907 14.7352C12.8644 14.4061 13.2151 14.1497 13.6117 13.9888L17.3712 23.2552C18.5011 22.7968 19.5002 22.0663 20.2798 21.1288L12.5907 14.7352ZM13.6117 13.9888C14.0083 13.8279 14.4385 13.7675 14.8641 13.8129L13.8032 23.7564C15.0156 23.8858 16.2413 23.7136 17.3712 23.2552L13.6117 13.9888ZM9.74152 16.8066C9.90637 16.4239 10.1394 16.0743 10.4293 15.775L17.6134 22.7311C18.1665 22.1599 18.6111 21.4929 18.9257 20.7627L9.74152 16.8066ZM10.819 15.4131C11.1565 15.1316 11.5862 14.9848 12.0255 15.001L11.6578 24.9942C13.6841 25.0688 15.6665 24.3916 17.2237 23.0929L10.819 15.4131Z" fill="#0C6862" mask="url(#path-6-inside-3_547_9138)"/>
<mask id="path-8-inside-4_547_9138" fill="white">
<path d="M13.8049 18.5806C13.6851 18.5809 13.568 18.5453 13.4686 18.4785L9.46343 15.7644C9.38046 15.7299 9.30628 15.6773 9.24636 15.6104C9.18643 15.5434 9.14229 15.4639 9.11719 15.3777C9.09208 15.2914 9.08665 15.2006 9.10129 15.112C9.11594 15.0233 9.15029 14.9391 9.20181 14.8655C9.25333 14.7919 9.32071 14.7308 9.39898 14.6867C9.47725 14.6426 9.56442 14.6166 9.65406 14.6107C9.74371 14.6048 9.83354 14.619 9.91694 14.6524C10.0003 14.6858 10.0752 14.7375 10.136 14.8036L14.1411 17.5118C14.2067 17.5559 14.2628 17.6125 14.3065 17.6783C14.3501 17.7441 14.3803 17.8179 14.3954 17.8955C14.4104 17.973 14.41 18.0527 14.3942 18.1301C14.3784 18.2075 14.3475 18.281 14.3033 18.3464C14.2449 18.4224 14.1692 18.4833 14.0825 18.524C13.9958 18.5648 13.9006 18.5842 13.8049 18.5806Z"/>
</mask>
<path d="M13.8049 18.5806C13.6851 18.5809 13.568 18.5453 13.4686 18.4785L9.46343 15.7644C9.38046 15.7299 9.30628 15.6773 9.24636 15.6104C9.18643 15.5434 9.14229 15.4639 9.11719 15.3777C9.09208 15.2914 9.08665 15.2006 9.10129 15.112C9.11594 15.0233 9.15029 14.9391 9.20181 14.8655C9.25333 14.7919 9.32071 14.7308 9.39898 14.6867C9.47725 14.6426 9.56442 14.6166 9.65406 14.6107C9.74371 14.6048 9.83354 14.619 9.91694 14.6524C10.0003 14.6858 10.0752 14.7375 10.136 14.8036L14.1411 17.5118C14.2067 17.5559 14.2628 17.6125 14.3065 17.6783C14.3501 17.7441 14.3803 17.8179 14.3954 17.8955C14.4104 17.973 14.41 18.0527 14.3942 18.1301C14.3784 18.2075 14.3475 18.281 14.3033 18.3464C14.2449 18.4224 14.1692 18.4833 14.0825 18.524C13.9958 18.5648 13.9006 18.5842 13.8049 18.5806Z" fill="#0C6862"/>
<path d="M13.8049 18.5806L13.9902 13.5841L13.892 13.5804L13.7937 13.5806L13.8049 18.5806ZM13.4686 18.4785L10.6637 22.6177L10.6717 22.6231L10.6798 22.6285L13.4686 18.4785ZM9.46343 15.7644L12.2684 11.6253L11.849 11.3411L11.3811 11.1468L9.46343 15.7644ZM10.136 14.8036L6.45363 18.186L6.84995 18.6175L7.3353 18.9457L10.136 14.8036ZM14.1411 17.5118L11.3404 21.6538L11.3498 21.6601L14.1411 17.5118ZM14.3033 18.3464L18.2679 21.393L18.3599 21.2732L18.4446 21.1481L14.3033 18.3464ZM13.7937 13.5806C14.6712 13.5787 15.5292 13.8392 16.2574 14.3286L10.6798 22.6285C11.6068 23.2515 12.699 23.5831 13.816 23.5806L13.7937 13.5806ZM16.2735 14.3394L12.2684 11.6253L6.65851 19.9035L10.6637 22.6177L16.2735 14.3394ZM11.3811 11.1468C11.9889 11.3992 12.5325 11.7848 12.9716 12.2753L5.52116 18.9455C6.08011 19.5698 6.77199 20.0607 7.54577 20.382L11.3811 11.1468ZM12.9716 12.2753C13.4106 12.7657 13.734 13.3484 13.918 13.9804L4.31639 16.7749C4.55055 17.5794 4.96224 18.3212 5.52116 18.9455L12.9716 12.2753ZM13.918 13.9804C14.1019 14.6124 14.1417 15.2776 14.0344 15.9271L4.16818 14.2969C4.03158 15.1236 4.08223 15.9704 4.31639 16.7749L13.918 13.9804ZM14.0344 15.9271C13.9271 16.5765 13.6755 17.1935 13.298 17.7328L5.10565 11.9982C4.62512 12.6847 4.30477 13.4702 4.16818 14.2969L14.0344 15.9271ZM13.298 17.7328C12.9205 18.2721 12.4268 18.7197 11.8534 19.0428L6.9446 10.3305C6.2146 10.7419 5.58617 11.3117 5.10565 11.9982L13.298 17.7328ZM11.8534 19.0428C11.2799 19.366 10.6412 19.5563 9.98441 19.5998L9.32371 9.62161C8.48764 9.67697 7.67463 9.91923 6.9446 10.3305L11.8534 19.0428ZM9.98441 19.5998C9.3276 19.6433 8.66941 19.5388 8.05836 19.2941L11.7755 10.0107C10.9977 9.69921 10.1598 9.56625 9.32371 9.62161L9.98441 19.5998ZM8.05836 19.2941C7.44731 19.0495 6.89892 18.6708 6.45363 18.186L13.8183 11.4213C13.2515 10.8042 12.5534 10.3221 11.7755 10.0107L8.05836 19.2941ZM7.3353 18.9457L11.3405 21.6538L16.9418 13.3698L12.9366 10.6616L7.3353 18.9457ZM11.3498 21.6601C10.8697 21.337 10.458 20.9224 10.1384 20.44L18.4745 14.9166C18.0677 14.3025 17.5437 13.7747 16.9324 13.3635L11.3498 21.6601ZM10.1384 20.44C9.81877 19.9577 9.59744 19.4169 9.4871 18.8489L19.3036 16.9421C19.1632 16.2189 18.8814 15.5306 18.4745 14.9166L10.1384 20.44ZM9.4871 18.8489C9.37675 18.2808 9.37957 17.6966 9.49536 17.1296L19.2931 19.1307C19.4405 18.4089 19.4441 17.6652 19.3036 16.9421L9.4871 18.8489ZM9.49536 17.1296C9.61116 16.5626 9.83766 16.0241 10.1619 15.5448L18.4446 21.1481C18.8574 20.538 19.1457 19.8524 19.2931 19.1307L9.49536 17.1296ZM10.3386 15.2999C10.7663 14.7433 11.3209 14.2972 11.9561 13.9987L16.2088 23.0494C17.0174 22.6694 17.7235 22.1015 18.2679 21.393L10.3386 15.2999ZM11.9561 13.9987C12.5913 13.7002 13.2888 13.558 13.9902 13.5841L13.6195 23.5772C14.5124 23.6103 15.4002 23.4293 16.2088 23.0494L11.9561 13.9987Z" fill="#0C6862" mask="url(#path-8-inside-4_547_9138)"/>
<mask id="path-10-inside-5_547_9138" fill="white">
<path d="M16.0749 16.6532C15.947 16.6519 15.8229 16.6098 15.7206 16.5331L11.9256 13.7709C11.8143 13.6719 11.7438 13.535 11.7278 13.3868C11.7118 13.2387 11.7515 13.0899 11.8391 12.9694C11.9267 12.8489 12.0559 12.7652 12.2018 12.7347C12.3476 12.7041 12.4996 12.7289 12.6282 12.8042L16.4292 15.5663C16.5567 15.66 16.6421 15.8002 16.6669 15.9565C16.6916 16.1128 16.6537 16.2725 16.5613 16.401C16.506 16.4786 16.4331 16.542 16.3485 16.5858C16.2639 16.6297 16.1701 16.6528 16.0749 16.6532Z"/>
</mask>
<path d="M16.0749 16.6532C15.947 16.6519 15.8229 16.6098 15.7206 16.5331L11.9256 13.7709C11.8143 13.6719 11.7438 13.535 11.7278 13.3868C11.7118 13.2387 11.7515 13.0899 11.8391 12.9694C11.9267 12.8489 12.0559 12.7652 12.2018 12.7347C12.3476 12.7041 12.4996 12.7289 12.6282 12.8042L16.4292 15.5663C16.5567 15.66 16.6421 15.8002 16.6669 15.9565C16.6916 16.1128 16.6537 16.2725 16.5613 16.401C16.506 16.4786 16.4331 16.542 16.3485 16.5858C16.2639 16.6297 16.1701 16.6528 16.0749 16.6532Z" fill="#0C6862"/>
<path d="M16.0749 16.6532L16.0245 21.6529L16.0613 21.6533L16.098 21.6531L16.0749 16.6532ZM15.7206 16.5331L18.7209 12.5334L18.6921 12.5117L18.663 12.4905L15.7206 16.5331ZM11.9256 13.7709L8.60121 17.5057L8.78466 17.669L8.98322 17.8135L11.9256 13.7709ZM12.6282 12.8042L15.5675 8.75938L15.3673 8.61391L15.1538 8.48892L12.6282 12.8042ZM16.4292 15.5663L19.3882 11.536L19.3784 11.5287L19.3685 11.5216L16.4292 15.5663ZM16.5613 16.401L12.5022 13.4814L12.4951 13.4912L12.4881 13.5011L16.5613 16.401ZM16.1252 11.6535C17.0621 11.6629 17.9715 11.9712 18.7209 12.5334L12.7203 20.5329C13.6743 21.2485 14.8319 21.6409 16.0245 21.6529L16.1252 11.6535ZM18.663 12.4905L14.868 9.72835L8.98322 17.8135L12.7782 20.5757L18.663 12.4905ZM15.25 10.0362C16.0654 10.762 16.5818 11.765 16.699 12.8503L6.75671 13.9234C6.90583 15.305 7.56324 16.5818 8.60121 17.5057L15.25 10.0362ZM16.699 12.8503C16.8161 13.9356 16.5256 15.0257 15.8839 15.9088L7.79432 10.03C6.97742 11.1541 6.60759 12.5418 6.75671 13.9234L16.699 12.8503ZM15.8839 15.9088C15.2421 16.7918 14.295 17.4048 13.2266 17.6285L11.177 7.84082C9.81686 8.12564 8.61122 8.90592 7.79432 10.03L15.8839 15.9088ZM13.2266 17.6285C12.1581 17.8523 11.0447 17.6708 10.1025 17.1194L15.1538 8.48892C13.9545 7.78701 12.5371 7.55601 11.177 7.84082L13.2266 17.6285ZM9.68881 16.8489L13.4898 19.6111L19.3685 11.5216L15.5675 8.75938L9.68881 16.8489ZM13.4701 19.5967C12.5355 18.9106 11.9096 17.8833 11.7284 16.7381L21.6054 15.1749C21.3747 13.7171 20.5779 12.4094 19.3882 11.536L13.4701 19.5967ZM11.7284 16.7381C11.5471 15.593 11.8252 14.4226 12.5022 13.4814L20.6203 19.3206C21.4821 18.1225 21.8361 16.6326 21.6054 15.1749L11.7284 16.7381ZM12.4881 13.5011C12.8929 12.9325 13.4272 12.4683 14.0469 12.147L18.6501 21.0246C19.4389 20.6156 20.1191 20.0247 20.6344 19.3009L12.4881 13.5011ZM14.0469 12.147C14.6665 11.8257 15.3537 11.6565 16.0518 11.6533L16.098 21.6531C16.9865 21.649 17.8613 21.4336 18.6501 21.0246L14.0469 12.147Z" fill="#0C6862" mask="url(#path-10-inside-5_547_9138)"/>
<path d="M17.6344 14.5955C17.6308 14.5928 17.6273 14.5901 17.6238 14.5874L18.3564 13.6327C18.3575 13.6335 18.3586 13.6343 18.3597 13.6352C18.3604 13.6357 18.361 13.6362 18.3617 13.6367C18.4602 13.7123 18.5329 13.8167 18.5697 13.9354C18.6072 14.0563 18.6055 14.1859 18.5648 14.3058C18.5242 14.4257 18.4468 14.5296 18.3436 14.6028C18.2403 14.6761 18.1166 14.7148 17.9901 14.7135C17.8619 14.7131 17.7372 14.6717 17.6344 14.5955ZM14.153 10.3842L14.153 10.3842L14.153 10.3842Z" fill="#0C6862" stroke="#0C6862" stroke-width="5"/>
</svg>
