<svg width="23" height="21" viewBox="0 0 23 21" fill="none" xmlns="http://www.w3.org/2000/svg">
<path d="M11.7475 2.36787C10.4387 1.19427 8.72349 0.577978 6.96705 0.650238C5.21062 0.722498 3.55179 1.4776 2.34382 2.75474C1.13585 4.03188 0.474186 5.73014 0.499737 7.48788C0.525288 9.24561 1.23603 10.9239 2.48062 12.1654L10.1579 19.8416C10.5795 20.2631 11.1513 20.4999 11.7475 20.4999C12.3437 20.4999 12.9155 20.2631 13.3372 19.8416L21.0144 12.1654C22.259 10.9239 22.9698 9.24561 22.9953 7.48788C23.0209 5.73014 22.3592 4.03188 21.1512 2.75474C19.9433 1.4776 18.2844 0.722498 16.528 0.650238C14.7716 0.577978 13.0563 1.19427 11.7475 2.36787Z" fill="#0C6862"/>
</svg>
