<svg width="25" height="25" viewBox="0 0 25 25" fill="none" xmlns="http://www.w3.org/2000/svg">
<path fill-rule="evenodd" clip-rule="evenodd" d="M5.6001 11.4C5.6001 8.09102 8.2911 5.40002 11.6001 5.40002C14.9091 5.40002 17.6001 8.09102 17.6001 11.4C17.6001 14.709 14.9091 17.4 11.6001 17.4C8.2911 17.4 5.6001 14.709 5.6001 11.4ZM21.3071 19.693L17.9121 16.297C18.9651 14.943 19.6001 13.246 19.6001 11.4C19.6001 6.98902 16.0111 3.40002 11.6001 3.40002C7.1891 3.40002 3.6001 6.98902 3.6001 11.4C3.6001 15.811 7.1891 19.4 11.6001 19.4C13.4461 19.4 15.1431 18.765 16.4971 17.712L19.8931 21.107C20.0881 21.302 20.3441 21.4 20.6001 21.4C20.8561 21.4 21.1121 21.302 21.3071 21.107C21.6981 20.716 21.6981 20.084 21.3071 19.693Z" fill="#0A9382"/>
</svg>
