<svg width="143" height="50" viewBox="0 0 143 50" fill="none" xmlns="http://www.w3.org/2000/svg">
<path d="M47.7258 13.4303C47.8812 13.457 48.1634 13.6309 48.545 13.9387C48.9263 14.2598 49.3076 14.621 49.7173 15.0359C50.1129 15.4508 50.466 15.8387 50.7625 16.2134C51.059 16.5881 51.2143 16.8424 51.2143 16.9629C51.2143 17.1233 51.0168 17.3643 50.6213 17.6721C50.2116 17.98 49.7597 18.301 49.2513 18.6356C48.7288 18.9701 48.2343 19.2645 47.7543 19.5184C47.26 19.7729 46.9211 19.8932 46.7234 19.8932C46.6244 19.8932 46.3845 19.746 46.0032 19.4384C45.6219 19.144 45.2264 18.8095 44.8309 18.4215C44.4354 18.0468 44.0822 17.6724 43.7718 17.3112C43.4469 16.9499 43.2915 16.7089 43.2915 16.5887C43.2915 16.428 43.5035 16.1873 43.9414 15.8527C44.3648 15.5182 44.8309 15.1704 45.3536 14.8092C45.876 14.448 46.3706 14.1401 46.8509 13.8724C47.3309 13.605 47.6277 13.4578 47.7264 13.4311L47.7258 13.4303Z" fill="#009483"/>
<path d="M104.815 45.0214C104.914 45.0214 104.97 45.0748 105.012 45.1818C105.041 45.3023 105.055 45.436 105.055 45.5832C105.055 45.7439 105.027 45.8506 104.956 45.8911C104.885 45.9444 104.829 45.9981 104.758 46.0652C104.532 46.1855 103.981 46.4531 103.106 46.8678C102.216 47.2826 101.241 47.6975 100.154 48.1124C99.0666 48.5405 98.007 48.9152 96.9619 49.2498C95.9167 49.5843 95.126 49.7447 94.6036 49.7447C94.1375 49.7447 93.6853 49.6511 93.2759 49.4638C92.8661 49.2764 92.6826 48.982 92.7532 48.5674C92.8237 48.3132 92.8946 47.925 92.9791 47.4301C93.0639 46.9349 93.1345 46.3194 93.205 45.5835C93.2756 44.6737 93.3465 43.6167 93.431 42.4257C93.5155 41.2347 93.5579 39.9102 93.5579 38.465C93.5579 36.7659 93.4449 35.3476 93.2048 34.237C92.9646 33.1263 92.6399 32.2299 92.202 31.5743C91.7641 30.9184 91.2417 30.4505 90.606 30.1828C89.9706 29.9151 89.2502 29.7814 88.417 29.7814C87.6545 29.7814 87.0048 29.9016 86.4821 30.1294C85.9455 30.3701 85.4794 30.6243 85.0839 30.9052C84.3495 31.4406 83.7704 32.1229 83.361 32.9524C82.9512 33.7954 82.6829 34.8926 82.5842 36.244C82.556 36.5917 82.5278 36.9397 82.5136 37.274C82.4997 37.622 82.4854 37.9965 82.4712 38.4114C82.457 38.8262 82.4288 39.281 82.4146 39.7762C82.4006 40.2847 82.3864 40.8869 82.3864 41.5827C82.3864 43.4425 82.5418 44.727 82.8667 45.4495C83.1775 46.172 83.7141 46.5332 84.4909 46.5332C84.7592 46.5332 84.9146 46.52 84.9852 46.5065C85.0557 46.4933 85.1829 46.4666 85.3807 46.4397C85.4512 46.5065 85.5079 46.5869 85.5784 46.6804C85.6772 46.8276 85.6629 47.0015 85.536 47.1888C85.3664 47.3897 84.9709 47.6304 84.3355 47.9248C83.6999 48.2326 83.0081 48.5003 82.2453 48.7545C81.4827 49.0087 80.7341 49.2228 79.9997 49.4101C79.2653 49.5975 78.7144 49.691 78.3613 49.691C77.8952 49.691 77.4715 49.6377 77.0902 49.5306C76.7089 49.4236 76.5112 49.2899 76.5112 49.1292C76.5112 48.9419 76.5817 48.7278 76.7086 48.4736C76.8077 48.313 76.9206 47.9382 77.0194 47.3363C77.1181 46.734 77.2029 45.9714 77.2877 45.0214C77.3725 44.0714 77.443 42.9874 77.5136 41.7433C77.5842 40.499 77.6126 39.1608 77.6126 37.7024C77.6126 36.953 77.5702 36.1235 77.4855 35.2002C77.4009 34.2903 77.189 33.4339 76.864 32.6314C76.5251 31.8283 76.0306 31.146 75.3952 30.5974C74.7456 30.0488 73.8558 29.7811 72.7259 29.7811C72.0621 29.7811 71.4548 29.8612 70.9324 30.0353C70.4097 30.2092 69.9579 30.4235 69.5905 30.6775C68.8564 31.2128 68.235 31.8684 67.7265 32.6578C67.2041 33.4471 66.8652 34.5578 66.6956 36.0027C66.625 36.6583 66.5687 37.3406 66.4978 38.0499C66.4273 38.7591 66.3988 39.5751 66.3988 40.485C66.3988 41.676 66.427 42.6661 66.4978 43.4554C66.5684 44.2447 66.6813 44.8737 66.8509 45.3287C67.0063 45.7835 67.2041 46.0914 67.4442 46.2652C67.6844 46.4394 67.9809 46.5327 68.3482 46.5327C68.7013 46.5327 68.9554 46.506 69.0826 46.4391C69.2519 46.3723 69.3649 46.4658 69.4354 46.72C69.506 46.9742 69.4918 47.1214 69.393 47.1883C69.2519 47.3088 68.8988 47.5096 68.3482 47.7773C67.7831 48.0447 67.1335 48.3259 66.3994 48.6068C65.665 48.888 64.9163 49.1422 64.1538 49.3694C63.3912 49.5835 62.7416 49.6905 62.2189 49.6905C61.6541 49.6905 61.2161 49.6236 60.9057 49.5031C60.5808 49.3826 60.4254 49.2357 60.4254 49.075C60.4254 49.0481 60.4536 48.9413 60.5244 48.7672C60.595 48.5933 60.6374 48.4461 60.6656 48.3256C60.7927 47.3489 60.9199 46.4523 61.0468 45.6093C61.1598 44.7799 61.2446 43.87 61.3012 42.8934C61.3436 41.9164 61.3857 40.806 61.4281 39.5482C61.4566 38.2906 61.4705 36.765 61.4705 34.9721C61.4705 33.246 61.174 31.9614 60.595 31.1454C60.0159 30.3291 59.4087 29.9145 58.7731 29.9145C58.5047 29.9145 58.293 29.9412 58.1095 29.9814C57.926 30.0348 57.7422 30.0752 57.5871 30.1019C57.3751 30.1421 57.2764 30.0485 57.2764 29.821V29.4862C57.3188 29.4598 57.6437 29.2454 58.2794 28.8306C58.9148 28.416 59.6634 27.9741 60.525 27.5059C61.3866 27.0376 62.2764 26.596 63.2085 26.2081C64.1404 25.8202 64.903 25.6194 65.4963 25.6194C65.906 25.6194 66.2449 25.7264 66.5274 25.9539C66.8097 26.1814 66.9511 26.5828 66.9511 27.1851C66.9511 27.466 66.9372 27.7738 66.923 28.1216C66.909 28.4696 66.8948 28.8308 66.8806 29.2053C66.8666 29.5935 66.8382 29.9547 66.81 30.3159C66.7676 30.6772 66.7537 30.9848 66.7537 31.2392C67.2197 30.8246 67.7988 30.2893 68.519 29.6336C69.2391 28.978 70.0441 28.3491 70.9339 27.7469C71.8234 27.1449 72.7982 26.623 73.8433 26.1814C74.8885 25.7399 75.9899 25.5258 77.1622 25.5258C78.6874 25.5258 79.9303 25.9539 80.9048 26.7969C81.8652 27.6533 82.3736 29.1384 82.4445 31.2392C82.9672 30.771 83.6168 30.1954 84.3933 29.5398C85.1559 28.8842 86.0175 28.2553 86.9639 27.6533C87.91 27.0511 88.9127 26.5561 89.9721 26.1413C91.0311 25.7266 92.1047 25.5258 93.2062 25.5258C97.0618 25.5258 98.9827 27.466 98.9827 31.3328C98.9827 31.9617 98.9546 32.6842 98.8837 33.5005C98.8131 34.3167 98.7423 35.1729 98.6435 36.0695C98.5445 36.9659 98.46 37.8625 98.3891 38.7454C98.3186 39.6285 98.2904 40.4313 98.2904 41.154C98.2904 44.4321 99.2084 46.0647 101.03 46.0647C101.327 46.0647 101.652 46.0245 102.019 45.9442C102.386 45.8638 102.753 45.7703 103.121 45.6498C103.488 45.5428 103.827 45.4358 104.124 45.3287C104.42 45.2217 104.632 45.1147 104.759 45.0209H104.816L104.815 45.0214Z" fill="#009483"/>
<path d="M49.6338 41.1007C49.6338 41.7563 49.648 42.3987 49.6901 43.0142C49.7186 43.6296 49.8316 44.1515 50.029 44.5928C50.2268 45.0344 50.5233 45.3959 50.933 45.6633C51.3285 45.931 51.8933 46.0647 52.6135 46.0647C52.9809 46.0647 53.4046 46.0245 53.8706 45.9445C54.3364 45.8641 54.7743 45.7571 55.1841 45.6366C55.5935 45.5164 55.9609 45.3824 56.2856 45.2484C56.5963 45.1282 56.7798 45.0344 56.8507 44.9675C56.9494 44.874 57.02 44.874 57.0624 44.9675C57.0905 45.0613 57.0905 45.1818 57.0766 45.3288C57.0624 45.4759 57.02 45.6096 56.9494 45.7568C56.8788 45.904 56.8083 45.9976 56.7095 46.0647C56.3706 46.2119 55.7916 46.4931 54.9585 46.9077C54.125 47.3225 53.1508 47.7372 52.0208 48.1787C50.9615 48.6203 49.9163 48.995 48.9136 49.2894C47.8967 49.5973 47.0493 49.7444 46.3855 49.7444C45.6229 49.7444 45.0296 49.5169 44.6059 49.0756C44.168 48.6341 43.956 48.0852 43.956 47.4296C43.956 47.2023 43.9702 47.015 43.9842 46.8543C43.9984 46.7071 44.0126 46.5063 44.0548 46.2521C44.0829 45.931 44.1395 45.3554 44.2243 44.5127C44.3088 43.683 44.3936 42.7465 44.4784 41.7161C44.549 40.6858 44.6338 39.6288 44.7044 38.5718C44.7749 37.5148 44.8034 36.6184 44.8034 35.869V34.2097C44.8034 33.3935 44.7471 32.6575 44.648 32.0289C44.5493 31.3999 44.3797 30.9182 44.1538 30.5702C43.9842 30.3561 43.7725 30.1823 43.5323 30.0348C43.2782 29.8876 42.9675 29.8207 42.6005 29.8207C42.4027 29.8207 42.2049 29.8609 42.0072 29.9412C41.8097 30.0216 41.6541 30.0615 41.5553 30.0615C41.4848 30.0615 41.3857 29.9679 41.2304 29.7671C41.075 29.5797 41.089 29.446 41.2583 29.3522C41.4984 29.1918 41.9787 28.9376 42.7131 28.5896C43.4333 28.2418 44.2383 27.8671 45.0999 27.4657C46.0181 27.0241 46.9218 26.6359 47.7834 26.3017C48.645 25.9671 49.2664 25.8065 49.6335 25.8065C50.0009 25.8065 50.2549 25.9135 50.3821 26.1143C50.5093 26.3149 50.5799 26.5424 50.5799 26.7966V26.984C50.5799 27.305 50.5375 27.8135 50.4388 28.496C50.3397 29.1918 50.2268 30.048 50.1138 31.0516C49.9866 32.0553 49.8876 33.219 49.7889 34.544C49.6898 35.8687 49.6335 37.3005 49.6335 38.8389V41.1001L49.6338 41.1007Z" fill="#009483"/>
<path d="M31.4987 27.6507C32.5534 24.3501 32.5717 18.5849 25.1562 15.9699C25.1562 15.9699 32.4877 8.41098 26.3021 6.72752C26.3021 6.72752 21.4801 5.69388 20.3833 11.0153C20.3833 11.0153 19.889 4.76316 13.8683 1.48069C10.3766 -0.422866 5.35103 -0.441028 5.88767 3.8492C6.19636 6.31676 8.99489 7.21558 10.3702 6.49257C12.1773 5.54257 11.4194 3.1504 10.0641 2.99331C9.74439 2.95617 9.29022 2.78009 9.15576 3.33445C9.06894 3.69156 10.4315 4.24344 9.0971 4.56424C7.76768 4.88365 6.47485 3.17516 7.74823 2.07275C8.32088 1.57726 9.33523 1.35743 10.0987 1.48784C13.861 2.1297 14.5914 4.71887 14.276 6.78475C13.1681 14.0438 -6.27779 27.8428 2.57951 41.5636C5.42537 45.9721 9.75398 49.0103 15.2656 49.5949C22.3362 50.3451 29.6311 48.3423 33.8834 41.8742C40.2976 32.1179 34.6625 23.9481 34.6625 23.9481C34.6979 24.4907 34.7168 25.0442 34.7185 25.6066C34.7476 34.2514 30.8342 44.4122 21.226 45.5894C14.177 46.453 6.88169 42.6649 5.51045 35.2603C4.13921 27.8559 9.1848 21.693 16.2597 20.5168C23.3342 19.3407 28.6856 22.515 31.4978 27.651L31.4987 27.6507Z" fill="#009483"/>
<path d="M31.4144 26.9678C31.8752 25.149 31.9606 22.7695 30.7874 20.609C29.8465 18.876 28.0911 17.277 25.0626 16.209L24.6883 16.0769L24.9569 15.7974C24.9769 15.7765 31.9888 8.54492 26.232 6.97453C25.9512 6.91951 21.6595 6.15989 20.6489 11.0639L20.2795 12.8561L20.1143 11.0359C20.1125 11.0182 19.6302 4.91608 13.7343 1.70129C12.1549 0.840165 10.2575 0.376031 8.73782 0.546606C8.23486 0.60328 7.77662 0.729281 7.3904 0.933696C7.01347 1.13343 6.70245 1.40884 6.48379 1.76897C6.17858 2.27162 6.04733 2.94676 6.15623 3.81862C6.20937 4.24478 6.34208 4.61894 6.53025 4.94056C6.85985 5.50345 7.36165 5.9131 7.91078 6.16787C8.45876 6.42153 9.05261 6.5203 9.56835 6.46252C9.81809 6.43446 10.0469 6.36982 10.2392 6.26885C10.6544 6.05068 10.9135 5.74748 11.0482 5.41761C11.1757 5.10535 11.194 4.76558 11.1292 4.44781C11.0645 4.12977 10.9172 3.8365 10.714 3.61696C10.5264 3.41474 10.2911 3.2769 10.0315 3.24691C9.99378 3.24251 9.93279 3.23206 9.87007 3.2216C9.68828 3.19189 9.47601 3.15585 9.41909 3.3908C9.41706 3.39988 9.51143 3.47636 9.60523 3.57485C9.7452 3.72287 9.89069 3.87557 9.93976 4.05825C10.0228 4.36749 9.87326 4.64122 9.16383 4.8118C8.69281 4.92487 8.22819 4.82666 7.84777 4.59831C7.57654 4.43571 7.34771 4.20681 7.19061 3.94214C7.03176 3.67445 6.94465 3.36796 6.95858 3.05323C6.9763 2.64907 7.15896 2.23749 7.56725 1.88396C7.87971 1.61269 8.30456 1.41681 8.75351 1.30539C9.21901 1.18956 9.71761 1.16288 10.1471 1.23606C11.8781 1.53126 13.0008 2.22731 13.6893 3.10027C14.5675 4.21396 14.7295 5.60524 14.5442 6.82018C14.1781 9.22143 11.897 12.2654 9.27041 15.7701C3.83801 23.0196 -3.09833 32.2757 2.81089 41.4298C4.2524 43.6627 6.07782 45.5382 8.24677 46.9113C10.2978 48.2099 12.6593 49.0603 15.2964 49.3401C19.0009 49.7329 22.765 49.3624 26.1066 47.9766C29.0607 46.7515 31.6882 44.7304 33.6551 41.7382C38.696 34.0706 36.2067 27.424 34.9813 25.0312C34.9859 25.2203 34.9885 25.4117 34.9891 25.6054C35.0054 30.392 33.8212 35.6432 31.1434 39.6088C28.9251 42.8943 25.6861 45.2991 21.2611 45.8414C17.5246 46.2992 13.7184 45.4716 10.7305 43.5081C7.97525 41.6972 5.91549 38.9229 5.24526 35.3029C4.56109 31.6097 5.44534 28.2171 7.37268 25.5738C9.38366 22.8154 12.5295 20.8753 16.2143 20.2629C19.6694 19.6887 22.7243 20.1358 25.2859 21.3347C27.8652 22.5422 29.9392 24.5113 31.4144 26.9664V26.9678ZM31.2672 20.3746C32.6547 22.9296 32.3869 25.7565 31.7582 27.7244L31.5657 28.3266L31.2593 27.7673C29.823 25.1443 27.7148 23.0432 25.0472 21.7942C22.5864 20.642 19.6436 20.2136 16.3075 20.7682C12.7673 21.3567 9.74636 23.2185 7.81699 25.8649C5.96776 28.4015 5.1201 31.6617 5.77842 35.2154C6.42194 38.691 8.39661 41.3525 11.0377 43.0882C13.9167 44.9802 17.5879 45.7773 21.194 45.3354C25.4398 44.8152 28.5531 42.4995 30.6898 39.335C33.3083 35.4569 34.4667 30.307 34.4507 25.606C34.4499 25.3322 34.4446 25.0568 34.4354 24.7809C34.4263 24.5129 34.4127 24.2397 34.3947 23.9627L34.3308 22.9764L34.8913 23.8105C34.9075 23.8345 40.619 32.115 34.1142 42.0087C32.0855 45.0947 29.3732 47.1804 26.3226 48.4454C22.889 49.8694 19.03 50.251 15.2377 49.8485C12.5118 49.5593 10.0696 48.6792 7.94708 47.3356C5.71134 45.9201 3.83191 43.9906 2.35062 41.6961C-3.74388 32.2551 3.30805 22.8443 8.83133 15.4738C11.417 12.0233 13.6623 9.02693 14.0099 6.74811C14.1778 5.64817 14.0364 4.39555 13.2564 3.40649C12.6436 2.62927 11.6299 2.00749 10.0524 1.73842C9.70019 1.67845 9.28464 1.70183 8.89144 1.79977C8.52206 1.89167 8.17737 2.04849 7.9314 2.26143C7.64014 2.5129 7.51033 2.79819 7.49813 3.07331C7.48855 3.28928 7.55041 3.50277 7.66279 3.69178C7.77691 3.88381 7.94186 4.04916 8.13613 4.16581C8.39835 4.32291 8.71517 4.39142 9.03199 4.31549C9.33662 4.24203 9.42257 4.20516 9.41706 4.18397C9.4005 4.12125 9.30148 4.01698 9.20594 3.91683H9.20478C9.01544 3.7182 8.83336 3.52671 8.89406 3.27663C9.06655 2.56599 9.55006 2.64771 9.96416 2.71759L9.96532 2.71869C10.0042 2.72529 10.0429 2.73189 10.0986 2.73822C10.4962 2.78417 10.8481 2.98583 11.1214 3.28048C11.3871 3.56743 11.5785 3.94544 11.6612 4.35152C11.7437 4.75732 11.719 5.19478 11.5529 5.60168C11.3755 6.03664 11.0386 6.43364 10.5031 6.71509C10.2464 6.84989 9.94993 6.93518 9.63369 6.97067C9.02067 7.03945 8.31937 6.92391 7.67586 6.62595C7.03379 6.32855 6.4472 5.84873 6.06069 5.18872C5.83853 4.80932 5.68288 4.37215 5.62132 3.87859C5.4979 2.89146 5.65617 2.11122 6.01858 1.51449C6.28865 1.06961 6.66993 0.730663 7.1302 0.486907C7.58119 0.248102 8.1068 0.101729 8.67626 0.037901C10.3071 -0.145054 12.33 0.346039 14.0044 1.25861C18.5102 3.71544 19.9827 7.79246 20.4485 9.80056C22.0161 5.54582 26.3467 6.47352 26.3601 6.47628L26.3781 6.48013C32.2519 8.07858 26.8941 14.4512 25.6161 15.8628C28.5668 16.9801 30.3103 18.6094 31.2686 20.374L31.2672 20.3746Z" fill="#009483"/>
<path d="M110.7 27.6507C109.645 24.3501 109.627 18.5849 117.042 15.9699C117.042 15.9699 109.71 8.41098 115.896 6.72752C115.896 6.72752 120.718 5.69388 121.815 11.0153C121.815 11.0153 122.309 4.76316 128.33 1.48069C131.822 -0.422866 136.847 -0.441028 136.311 3.8492C136.002 6.31676 133.203 7.21558 131.828 6.49257C130.021 5.54257 130.779 3.1504 132.134 2.99331C132.454 2.95617 132.908 2.78009 133.042 3.33445C133.129 3.69156 131.767 4.24344 133.101 4.56424C134.431 4.88365 135.723 3.17516 134.45 2.07275C133.877 1.57726 132.863 1.35743 132.1 1.48784C128.337 2.1297 127.607 4.71887 127.922 6.78475C129.03 14.0438 148.476 27.8428 139.619 41.5636C136.773 45.9721 132.444 49.0103 126.933 49.5949C119.862 50.3451 112.567 48.3423 108.315 41.8742C101.901 32.1179 107.536 23.9481 107.536 23.9481C107.5 24.4907 107.481 25.0442 107.48 25.6066C107.451 34.2514 111.364 44.4122 120.972 45.5894C128.021 46.453 135.317 42.6649 136.688 35.2603C138.059 27.8559 133.014 21.693 125.939 20.5168C118.864 19.3407 113.513 22.515 110.701 27.651L110.7 27.6507Z" fill="#009483"/>
<path d="M110.441 27.7248C109.812 25.7566 109.544 22.93 110.932 20.3749C111.89 18.6103 113.633 16.9811 116.584 15.8638C115.306 14.4522 109.949 8.07954 115.822 6.48108L115.84 6.47723C115.853 6.47448 120.184 5.54677 121.752 9.80151C122.217 7.79341 123.69 3.71612 128.196 1.25957C129.87 0.346718 131.893 -0.144376 133.524 0.0388545C134.093 0.102683 134.619 0.249042 135.07 0.487847C135.53 0.731604 135.911 1.07055 136.182 1.51543C136.544 2.11189 136.702 2.89213 136.579 3.87954C136.517 4.37311 136.361 4.81027 136.139 5.18966C135.753 5.84995 135.166 6.32976 134.524 6.62689C133.881 6.92485 133.18 7.04039 132.566 6.97161C132.25 6.93612 131.953 6.85085 131.697 6.71604C131.162 6.43459 130.825 6.03759 130.647 5.60262C130.481 5.19572 130.456 4.75828 130.539 4.35247C130.622 3.94667 130.813 3.56837 131.079 3.28142C131.352 2.98677 131.704 2.78511 132.102 2.73916C132.157 2.73283 132.196 2.72623 132.235 2.71963L132.236 2.71853C132.65 2.64865 133.134 2.56666 133.306 3.27757C133.367 3.52765 133.184 3.71914 132.995 3.91777H132.994C132.899 4.01792 132.8 4.1222 132.783 4.18383C132.777 4.20584 132.863 4.24269 133.168 4.31615C133.485 4.39208 133.802 4.32386 134.064 4.16677C134.258 4.05012 134.423 3.88449 134.537 3.69273C134.649 3.50373 134.711 3.28996 134.702 3.07426C134.69 2.79914 134.56 2.51383 134.269 2.26182C134.023 2.04943 133.678 1.89262 133.308 1.80073C132.915 1.70279 132.5 1.6794 132.147 1.73938C130.57 2.00845 129.556 2.63021 128.944 3.40743C128.163 4.39649 128.022 5.64911 128.19 6.74904C128.538 9.02787 130.783 12.0242 133.369 15.4748C138.892 22.8453 145.944 32.256 139.849 41.6971C138.368 43.9919 136.489 45.9213 134.253 47.3365C132.13 48.6802 129.688 49.5603 126.962 49.8495C123.17 50.2517 119.311 49.8701 115.877 48.4463C112.827 47.1811 110.114 45.0954 108.086 42.0096C101.581 32.116 107.293 23.8354 107.309 23.8115L107.869 22.9773L107.805 23.9636C107.787 24.2409 107.774 24.5141 107.765 24.7818C107.755 25.0578 107.75 25.3332 107.749 25.6069C107.733 30.3079 108.892 35.4579 111.51 39.336C113.647 42.5004 116.76 44.8161 121.006 45.3364C124.612 45.7782 128.283 44.9812 131.162 43.0892C133.803 41.3534 135.778 38.6919 136.421 35.2163C137.079 31.6626 136.232 28.4024 134.383 25.8658C132.454 23.2194 129.433 21.3577 125.892 20.7692C122.556 20.2146 119.613 20.6429 117.153 21.7951C114.485 23.0439 112.377 25.145 110.941 27.7683L110.635 28.3276L110.442 27.7253L110.441 27.7248ZM111.411 20.6091C110.238 22.7699 110.323 25.1494 110.784 26.9679C112.259 24.5128 114.333 22.5437 116.913 21.3362C119.474 20.137 122.529 19.6899 125.984 20.2643C129.669 20.8768 132.815 22.8169 134.826 25.5753C136.753 28.2186 137.637 31.6111 136.953 35.3044C136.283 38.9244 134.223 41.6987 131.468 43.5096C128.48 45.4731 124.674 46.3007 120.937 45.8429C116.512 45.3009 113.273 42.8958 111.055 39.6103C108.378 35.645 107.193 30.3937 107.209 25.6069C107.21 25.4132 107.213 25.2217 107.217 25.0327C105.992 27.4255 103.502 34.0721 108.543 41.7397C110.51 44.7319 113.138 46.753 116.092 47.9781C119.433 49.3639 123.198 49.7345 126.902 49.3416C129.539 49.0618 131.9 48.2111 133.951 46.9128C136.12 45.5394 137.946 43.6642 139.387 41.4313C145.296 32.2775 138.36 23.0211 132.928 15.7716C130.301 12.2669 128.02 9.22293 127.654 6.82168C127.469 5.60675 127.631 4.21546 128.509 3.10178C129.197 2.22882 130.32 1.53276 132.051 1.23755C132.481 1.16437 132.979 1.19106 133.445 1.30688C133.894 1.41858 134.318 1.61419 134.631 1.88463C135.039 2.23927 135.222 2.65085 135.24 3.055C135.253 3.36946 135.166 3.67595 135.008 3.94392C134.85 4.20858 134.621 4.43748 134.35 4.60008C133.97 4.82843 133.505 4.92637 133.035 4.81357C132.325 4.64299 132.175 4.36925 132.258 4.05974C132.307 3.87706 132.453 3.72437 132.593 3.57691C132.687 3.47814 132.781 3.40138 132.779 3.39257C132.722 3.15762 132.51 3.19338 132.328 3.2242C132.265 3.23382 132.204 3.24428 132.167 3.24869C131.907 3.27867 131.672 3.41624 131.484 3.61873C131.281 3.83827 131.134 4.13154 131.069 4.44958C131.004 4.76762 131.022 5.1074 131.15 5.41938C131.285 5.74925 131.544 6.05216 131.959 6.27061C132.151 6.37158 132.38 6.43623 132.63 6.46429C133.146 6.52207 133.739 6.4233 134.287 6.16964C134.837 5.91515 135.339 5.50523 135.668 4.94233C135.856 4.62071 135.989 4.24656 136.042 3.82039C136.151 2.94854 136.02 2.27339 135.714 1.77074C135.496 1.41061 135.185 1.13493 134.808 0.935469C134.422 0.731054 133.963 0.604778 133.46 0.548379C131.941 0.377804 130.043 0.8422 128.464 1.70305C122.568 4.91784 122.085 11.02 122.084 11.0376L121.919 12.8578L121.549 11.0657C120.539 6.16166 116.247 6.92128 115.966 6.9763C110.209 8.54669 117.221 15.7785 117.241 15.7991L117.51 16.0787L117.136 16.2107C114.107 17.2785 112.352 18.8777 111.411 20.6107L111.411 20.6091Z" fill="#009483"/>
</svg>
