<svg width="143" height="50" viewBox="0 0 143 50" fill="none" xmlns="http://www.w3.org/2000/svg">
<mask id="path-1-inside-1_373_2196" fill="white">
<path d="M104.815 45.0215C104.914 45.0215 104.97 45.0748 105.012 45.1819C105.041 45.3024 105.055 45.4361 105.055 45.5833C105.055 45.7439 105.027 45.8507 104.956 45.8911C104.885 45.9445 104.829 45.9982 104.758 46.0653C104.532 46.1855 103.981 46.4532 103.106 46.8678C102.216 47.2827 101.241 47.6976 100.154 48.1125C99.0666 48.5405 98.007 48.9153 96.9619 49.2498C95.9167 49.5844 95.126 49.7447 94.6036 49.7447C94.1375 49.7447 93.6853 49.6512 93.2759 49.4639C92.8661 49.2765 92.6826 48.9821 92.7532 48.5675C92.8237 48.3133 92.8946 47.9251 92.9791 47.4302C93.0639 46.9349 93.1345 46.3195 93.205 45.5835C93.2756 44.6737 93.3465 43.6167 93.431 42.4257C93.5155 41.2347 93.5579 39.9103 93.5579 38.4651C93.5579 36.7659 93.4449 35.3477 93.2048 34.237C92.9646 33.1264 92.6399 32.23 92.202 31.5744C91.7641 30.9185 91.2417 30.4505 90.606 30.1828C89.9706 29.9152 89.2502 29.7814 88.417 29.7814C87.6545 29.7814 87.0048 29.9017 86.4821 30.1295C85.9455 30.3702 85.4794 30.6244 85.0839 30.9053C84.3495 31.4407 83.7704 32.123 83.361 32.9525C82.9512 33.7955 82.6829 34.8926 82.5842 36.244C82.556 36.5918 82.5278 36.9398 82.5136 37.2741C82.4997 37.6221 82.4854 37.9965 82.4712 38.4114C82.457 38.8263 82.4288 39.2811 82.4146 39.7763C82.4006 40.2847 82.3864 40.887 82.3864 41.5827C82.3864 43.4426 82.5418 44.7271 82.8667 45.4496C83.1775 46.172 83.7141 46.5333 84.4909 46.5333C84.7592 46.5333 84.9146 46.5201 84.9852 46.5066C85.0557 46.4934 85.1829 46.4667 85.3807 46.4397C85.4512 46.5066 85.5079 46.5869 85.5784 46.6805C85.6772 46.8276 85.6629 47.0015 85.536 47.1889C85.3664 47.3897 84.9709 47.6304 84.3355 47.9248C83.6999 48.2327 83.0081 48.5004 82.2453 48.7546C81.4827 49.0088 80.7341 49.2228 79.9997 49.4102C79.2653 49.5976 78.7144 49.6911 78.3613 49.6911C77.8952 49.6911 77.4715 49.6377 77.0902 49.5307C76.7089 49.4237 76.5112 49.29 76.5112 49.1293C76.5112 48.9419 76.5817 48.7279 76.7086 48.4737C76.8077 48.313 76.9206 47.9383 77.0194 47.3363C77.1181 46.7341 77.2029 45.9715 77.2877 45.0215C77.3725 44.0715 77.443 42.9875 77.5136 41.7434C77.5842 40.499 77.6126 39.1609 77.6126 37.7024C77.6126 36.953 77.5702 36.1235 77.4855 35.2002C77.4009 34.2904 77.189 33.4339 76.864 32.6314C76.5251 31.8283 76.0306 31.146 75.3952 30.5974C74.7456 30.0489 73.8558 29.7812 72.7259 29.7812C72.0621 29.7812 71.4548 29.8612 70.9324 30.0354C70.4097 30.2092 69.9579 30.4236 69.5905 30.6775C68.8564 31.2129 68.235 31.8685 67.7265 32.6578C67.2041 33.4472 66.8652 34.5578 66.6956 36.0028C66.625 36.6584 66.5687 37.3407 66.4978 38.0499C66.4273 38.7592 66.3988 39.5752 66.3988 40.485C66.3988 41.676 66.427 42.6662 66.4978 43.4555C66.5684 44.2448 66.6813 44.8737 66.8509 45.3288C67.0063 45.7836 67.2041 46.0914 67.4442 46.2653C67.6844 46.4394 67.9809 46.5327 68.3482 46.5327C68.7013 46.5327 68.9554 46.506 69.0826 46.4392C69.2519 46.3723 69.3649 46.4659 69.4354 46.7201C69.506 46.9743 69.4918 47.1215 69.393 47.1883C69.2519 47.3088 68.8988 47.5097 68.3482 47.7774C67.7831 48.0448 67.1335 48.326 66.3994 48.6069C65.665 48.888 64.9163 49.1422 64.1538 49.3695C63.3912 49.5835 62.7416 49.6905 62.2189 49.6905C61.6541 49.6905 61.2161 49.6237 60.9057 49.5032C60.5808 49.3827 60.4254 49.2358 60.4254 49.0751C60.4254 49.0481 60.4536 48.9414 60.5244 48.7672C60.595 48.5934 60.6374 48.4462 60.6656 48.3257C60.7927 47.349 60.9199 46.4524 61.0468 45.6094C61.1598 44.7799 61.2446 43.8701 61.3012 42.8934C61.3436 41.9165 61.3857 40.8061 61.4281 39.5482C61.4566 38.2906 61.4705 36.7651 61.4705 34.9721C61.4705 33.246 61.174 31.9615 60.595 31.1455C60.0159 30.3292 59.4087 29.9146 58.7731 29.9146C58.5047 29.9146 58.293 29.9413 58.1095 29.9815C57.926 30.0348 57.7422 30.0753 57.5871 30.1019C57.3751 30.1421 57.2764 30.0486 57.2764 29.8211V29.4862C57.3188 29.4598 57.6437 29.2455 58.2794 28.8306C58.9148 28.416 59.6634 27.9742 60.525 27.5059C61.3866 27.0377 62.2764 26.5961 63.2085 26.2082C64.1404 25.8203 64.903 25.6194 65.4963 25.6194C65.906 25.6194 66.2449 25.7264 66.5274 25.954C66.8097 26.1815 66.9511 26.5829 66.9511 27.1851C66.9511 27.466 66.9372 27.7739 66.923 28.1216C66.909 28.4697 66.8948 28.8309 66.8806 29.2053C66.8666 29.5935 66.8382 29.9548 66.81 30.316C66.7676 30.6772 66.7537 30.9848 66.7537 31.2393C67.2197 30.8247 67.7988 30.2893 68.519 29.6337C69.2391 28.9781 70.0441 28.3492 70.9339 27.7469C71.8234 27.145 72.7982 26.623 73.8433 26.1815C74.8885 25.7399 75.9899 25.5259 77.1622 25.5259C78.6874 25.5259 79.9303 25.954 80.9048 26.7969C81.8652 27.6534 82.3736 29.1385 82.4445 31.2393C82.9672 30.7711 83.6168 30.1955 84.3933 29.5399C85.1559 28.8843 86.0175 28.2553 86.9639 27.6534C87.91 27.0511 88.9127 26.5562 89.9721 26.1413C91.0311 25.7267 92.1047 25.5259 93.2062 25.5259C97.0618 25.5259 98.9827 27.466 98.9827 31.3328C98.9827 31.9618 98.9546 32.6842 98.8837 33.5005C98.8131 34.3168 98.7423 35.173 98.6435 36.0696C98.5445 36.9659 98.46 37.8626 98.3891 38.7454C98.3186 39.6286 98.2904 40.4314 98.2904 41.1541C98.2904 44.4322 99.2084 46.0647 101.03 46.0647C101.327 46.0647 101.652 46.0246 102.019 45.9442C102.386 45.8639 102.753 45.7704 103.121 45.6499C103.488 45.5428 103.827 45.4358 104.124 45.3288C104.42 45.2218 104.632 45.1147 104.759 45.0209H104.816L104.815 45.0215Z"/>
</mask>
<path d="M104.815 45.0215C104.914 45.0215 104.97 45.0748 105.012 45.1819C105.041 45.3024 105.055 45.4361 105.055 45.5833C105.055 45.7439 105.027 45.8507 104.956 45.8911C104.885 45.9445 104.829 45.9982 104.758 46.0653C104.532 46.1855 103.981 46.4532 103.106 46.8678C102.216 47.2827 101.241 47.6976 100.154 48.1125C99.0666 48.5405 98.007 48.9153 96.9619 49.2498C95.9167 49.5844 95.126 49.7447 94.6036 49.7447C94.1375 49.7447 93.6853 49.6512 93.2759 49.4639C92.8661 49.2765 92.6826 48.9821 92.7532 48.5675C92.8237 48.3133 92.8946 47.9251 92.9791 47.4302C93.0639 46.9349 93.1345 46.3195 93.205 45.5835C93.2756 44.6737 93.3465 43.6167 93.431 42.4257C93.5155 41.2347 93.5579 39.9103 93.5579 38.4651C93.5579 36.7659 93.4449 35.3477 93.2048 34.237C92.9646 33.1264 92.6399 32.23 92.202 31.5744C91.7641 30.9185 91.2417 30.4505 90.606 30.1828C89.9706 29.9152 89.2502 29.7814 88.417 29.7814C87.6545 29.7814 87.0048 29.9017 86.4821 30.1295C85.9455 30.3702 85.4794 30.6244 85.0839 30.9053C84.3495 31.4407 83.7704 32.123 83.361 32.9525C82.9512 33.7955 82.6829 34.8926 82.5842 36.244C82.556 36.5918 82.5278 36.9398 82.5136 37.2741C82.4997 37.6221 82.4854 37.9965 82.4712 38.4114C82.457 38.8263 82.4288 39.2811 82.4146 39.7763C82.4006 40.2847 82.3864 40.887 82.3864 41.5827C82.3864 43.4426 82.5418 44.7271 82.8667 45.4496C83.1775 46.172 83.7141 46.5333 84.4909 46.5333C84.7592 46.5333 84.9146 46.5201 84.9852 46.5066C85.0557 46.4934 85.1829 46.4667 85.3807 46.4397C85.4512 46.5066 85.5079 46.5869 85.5784 46.6805C85.6772 46.8276 85.6629 47.0015 85.536 47.1889C85.3664 47.3897 84.9709 47.6304 84.3355 47.9248C83.6999 48.2327 83.0081 48.5004 82.2453 48.7546C81.4827 49.0088 80.7341 49.2228 79.9997 49.4102C79.2653 49.5976 78.7144 49.6911 78.3613 49.6911C77.8952 49.6911 77.4715 49.6377 77.0902 49.5307C76.7089 49.4237 76.5112 49.29 76.5112 49.1293C76.5112 48.9419 76.5817 48.7279 76.7086 48.4737C76.8077 48.313 76.9206 47.9383 77.0194 47.3363C77.1181 46.7341 77.2029 45.9715 77.2877 45.0215C77.3725 44.0715 77.443 42.9875 77.5136 41.7434C77.5842 40.499 77.6126 39.1609 77.6126 37.7024C77.6126 36.953 77.5702 36.1235 77.4855 35.2002C77.4009 34.2904 77.189 33.4339 76.864 32.6314C76.5251 31.8283 76.0306 31.146 75.3952 30.5974C74.7456 30.0489 73.8558 29.7812 72.7259 29.7812C72.0621 29.7812 71.4548 29.8612 70.9324 30.0354C70.4097 30.2092 69.9579 30.4236 69.5905 30.6775C68.8564 31.2129 68.235 31.8685 67.7265 32.6578C67.2041 33.4472 66.8652 34.5578 66.6956 36.0028C66.625 36.6584 66.5687 37.3407 66.4978 38.0499C66.4273 38.7592 66.3988 39.5752 66.3988 40.485C66.3988 41.676 66.427 42.6662 66.4978 43.4555C66.5684 44.2448 66.6813 44.8737 66.8509 45.3288C67.0063 45.7836 67.2041 46.0914 67.4442 46.2653C67.6844 46.4394 67.9809 46.5327 68.3482 46.5327C68.7013 46.5327 68.9554 46.506 69.0826 46.4392C69.2519 46.3723 69.3649 46.4659 69.4354 46.7201C69.506 46.9743 69.4918 47.1215 69.393 47.1883C69.2519 47.3088 68.8988 47.5097 68.3482 47.7774C67.7831 48.0448 67.1335 48.326 66.3994 48.6069C65.665 48.888 64.9163 49.1422 64.1538 49.3695C63.3912 49.5835 62.7416 49.6905 62.2189 49.6905C61.6541 49.6905 61.2161 49.6237 60.9057 49.5032C60.5808 49.3827 60.4254 49.2358 60.4254 49.0751C60.4254 49.0481 60.4536 48.9414 60.5244 48.7672C60.595 48.5934 60.6374 48.4462 60.6656 48.3257C60.7927 47.349 60.9199 46.4524 61.0468 45.6094C61.1598 44.7799 61.2446 43.8701 61.3012 42.8934C61.3436 41.9165 61.3857 40.8061 61.4281 39.5482C61.4566 38.2906 61.4705 36.7651 61.4705 34.9721C61.4705 33.246 61.174 31.9615 60.595 31.1455C60.0159 30.3292 59.4087 29.9146 58.7731 29.9146C58.5047 29.9146 58.293 29.9413 58.1095 29.9815C57.926 30.0348 57.7422 30.0753 57.5871 30.1019C57.3751 30.1421 57.2764 30.0486 57.2764 29.8211V29.4862C57.3188 29.4598 57.6437 29.2455 58.2794 28.8306C58.9148 28.416 59.6634 27.9742 60.525 27.5059C61.3866 27.0377 62.2764 26.5961 63.2085 26.2082C64.1404 25.8203 64.903 25.6194 65.4963 25.6194C65.906 25.6194 66.2449 25.7264 66.5274 25.954C66.8097 26.1815 66.9511 26.5829 66.9511 27.1851C66.9511 27.466 66.9372 27.7739 66.923 28.1216C66.909 28.4697 66.8948 28.8309 66.8806 29.2053C66.8666 29.5935 66.8382 29.9548 66.81 30.316C66.7676 30.6772 66.7537 30.9848 66.7537 31.2393C67.2197 30.8247 67.7988 30.2893 68.519 29.6337C69.2391 28.9781 70.0441 28.3492 70.9339 27.7469C71.8234 27.145 72.7982 26.623 73.8433 26.1815C74.8885 25.7399 75.9899 25.5259 77.1622 25.5259C78.6874 25.5259 79.9303 25.954 80.9048 26.7969C81.8652 27.6534 82.3736 29.1385 82.4445 31.2393C82.9672 30.7711 83.6168 30.1955 84.3933 29.5399C85.1559 28.8843 86.0175 28.2553 86.9639 27.6534C87.91 27.0511 88.9127 26.5562 89.9721 26.1413C91.0311 25.7267 92.1047 25.5259 93.2062 25.5259C97.0618 25.5259 98.9827 27.466 98.9827 31.3328C98.9827 31.9618 98.9546 32.6842 98.8837 33.5005C98.8131 34.3168 98.7423 35.173 98.6435 36.0696C98.5445 36.9659 98.46 37.8626 98.3891 38.7454C98.3186 39.6286 98.2904 40.4314 98.2904 41.1541C98.2904 44.4322 99.2084 46.0647 101.03 46.0647C101.327 46.0647 101.652 46.0246 102.019 45.9442C102.386 45.8639 102.753 45.7704 103.121 45.6499C103.488 45.5428 103.827 45.4358 104.124 45.3288C104.42 45.2218 104.632 45.1147 104.759 45.0209H104.816L104.815 45.0215Z" fill="#03423E" stroke="black" stroke-width="2" mask="url(#path-1-inside-1_373_2196)"/>
<path d="M55.325 46.1163C55.4225 46.0877 55.5177 46.0583 55.6106 46.0283M55.325 46.1163L55.1841 45.6366L55.3252 46.1162C55.3251 46.1163 55.325 46.1163 55.325 46.1163ZM55.325 46.1163C54.8996 46.2414 54.4429 46.3531 53.9556 46.4371L53.9553 46.4372C53.4683 46.5208 53.0156 46.5646 52.6135 46.5646C51.8441 46.5646 51.167 46.4239 50.6562 46.0797M55.6106 46.0283L50.6597 46.0819C50.6586 46.0812 50.6574 46.0804 50.6562 46.0797M55.6106 46.0283C55.3565 46.1521 55.0649 46.2961 54.7357 46.46L54.7356 46.46C53.921 46.8655 52.9621 47.274 51.8388 47.713L51.8388 47.7128L51.8285 47.7172C50.7838 48.1526 49.756 48.5209 48.7728 48.8096L48.7728 48.8096L48.7687 48.8108C47.7778 49.1108 46.9823 49.2444 46.3855 49.2444C45.7273 49.2444 45.2761 49.0516 44.9666 48.7293L44.9666 48.7292L44.9609 48.7235C44.6241 48.3838 44.456 47.9653 44.456 47.4295C44.456 47.2248 44.4687 47.0548 44.4821 46.8998C44.4848 46.8716 44.4875 46.8427 44.4902 46.813C44.5026 46.6768 44.5165 46.5237 44.548 46.3337L44.5512 46.3148L44.5528 46.2957C44.5807 45.9785 44.6369 45.4064 44.7218 44.5631M50.6562 46.0797C50.1628 45.7566 49.8065 45.3191 49.5727 44.7971L49.5726 44.797C49.3446 44.2874 49.222 43.703 49.1909 43.0428C49.1508 42.4532 49.1357 41.8427 49.134 41.2248L49.1335 41.2239V41.1001V38.8389C49.1335 37.2882 49.1903 35.844 49.2903 34.5067C49.389 33.1821 49.4886 32.0086 49.6173 30.9922C49.7308 29.9846 49.8442 29.1247 49.9438 28.4255L49.9439 28.4244C50.0413 27.7515 50.0799 27.2701 50.0799 26.9839V26.7966C50.0799 26.6401 50.0379 26.505 49.9599 26.382L49.9597 26.3818L49.9596 26.3816C49.9582 26.3793 49.9491 26.3646 49.9067 26.347C49.8582 26.3269 49.7718 26.3064 49.6335 26.3064C49.3687 26.3064 48.8245 26.4338 47.9644 26.7677L47.9643 26.7678C47.1143 27.0975 46.2226 27.4806 45.3166 27.9163L45.311 27.9189L45.311 27.9189L45.252 27.9464C44.4119 28.3378 43.6306 28.7018 42.9305 29.0398L42.9273 29.0414L42.9273 29.0414C42.6923 29.1527 42.4865 29.253 42.3085 29.3425C42.4049 29.3281 42.5023 29.3207 42.6005 29.3207C43.0257 29.3207 43.4305 29.3979 43.783 29.6021L43.7941 29.6085L43.794 29.6086C44.0715 29.779 44.3317 29.9895 44.5457 30.2596L44.5603 30.2781L44.5732 30.2979C44.8496 30.7237 45.0364 31.2791 45.1419 31.951C45.2456 32.609 45.3034 33.3713 45.3034 34.2097V35.8689C45.3034 36.6308 45.2745 37.5384 45.2033 38.605C45.1656 39.1685 45.1231 39.744 45.081 40.3132C45.0449 40.8008 45.0092 41.2837 44.9773 41.7502L44.9768 41.7571L44.9768 41.7571C44.8918 42.7896 44.8067 43.7294 44.7218 44.5631M44.7218 44.5631C44.7218 44.5632 44.7218 44.5632 44.7218 44.5633L44.2243 44.5127L44.7218 44.5627C44.7218 44.5628 44.7218 44.563 44.7218 44.5631Z" fill="#03423E" stroke="black"/>
<path d="M24.7972 15.6217L24.7973 15.6217L24.7979 15.6211L24.8011 15.6177L24.8151 15.6031C24.8278 15.5898 24.8469 15.5696 24.8719 15.5429C24.9219 15.4894 24.9953 15.41 25.087 15.3078C25.2704 15.1033 25.5266 14.8084 25.8153 14.4492C26.3955 13.7273 27.0948 12.7606 27.6024 11.7547C28.1187 10.7314 28.3918 9.75431 28.2417 8.97652C28.1055 8.27109 27.592 7.60072 26.1869 7.21427C26.1807 7.21308 26.1719 7.21145 26.1609 7.2095C26.1317 7.20436 26.0863 7.19694 26.0266 7.18899C25.9072 7.17306 25.7319 7.15513 25.5168 7.14882C25.0846 7.13615 24.5044 7.17085 23.8989 7.35427C23.2967 7.53673 22.6727 7.86505 22.1368 8.44088C21.6015 9.01597 21.1314 9.86221 20.873 11.1161L19.8869 11.0547C19.8848 11.0549 19.8848 11.0549 19.8848 11.0549L19.8848 11.0545L19.8847 11.0536L19.8838 11.0438C19.883 11.0343 19.8815 11.0191 19.8792 10.9984C19.8747 10.957 19.8671 10.8937 19.8553 10.8106C19.8316 10.6445 19.7909 10.3999 19.7237 10.0945C19.589 9.4833 19.3486 8.63212 18.9266 7.68168C18.0833 5.78237 16.5201 3.49581 13.6289 1.91957C11.9508 1.00471 9.93813 0.566396 8.45626 0.834185C7.72356 0.966593 7.16286 1.26258 6.81008 1.71067L24.7972 15.6217ZM24.7972 15.6217L24.7972 15.6218L24.254 16.1818L24.9899 16.4413C28.5766 17.7062 30.3011 19.7026 31.0337 21.7235C31.6102 23.3139 31.589 24.966 31.3133 26.3663M24.7972 15.6217L31.3133 26.3663M31.3133 26.3663C28.2712 21.6749 22.9804 18.8925 16.1777 20.0235C8.8608 21.2399 3.59058 27.6391 5.01881 35.3512C6.45132 43.0866 14.0537 46.9717 21.2868 46.0856C26.2791 45.4739 29.7828 42.5213 32.0192 38.6482C34.1654 34.9315 35.1579 30.3513 35.216 26.0991C35.5713 26.943 35.9447 28.0434 36.1867 29.3439C36.7736 32.4976 36.5919 36.8441 33.4656 41.5994C29.3492 47.8608 22.2713 49.8353 15.3184 49.0976L15.2656 49.5948L15.3184 49.0976C9.97503 48.5308 5.77381 45.5898 2.99959 41.2923C-1.25725 34.698 1.23843 28.0626 5.11175 22.0207C6.48425 19.8798 8.00633 17.8487 9.43815 15.938C10.0261 15.1535 10.5988 14.3892 11.1398 13.646C12.0629 12.3775 12.8925 11.1707 13.5274 10.0462C14.1598 8.92632 14.6184 7.85504 14.7703 6.86006M31.3133 26.3663L10.1829 0.994857C12.1755 1.33482 13.4375 2.20759 14.141 3.33798C14.8353 4.45373 14.9401 5.74762 14.7703 6.86006M14.7703 6.86006L14.276 6.78462L14.7703 6.86006ZM7.94769 5.91761C7.1608 5.53479 6.51347 4.82353 6.38381 3.78702L10.1828 0.99484C9.72507 0.916677 9.2119 0.945263 8.7356 1.05918C8.2615 1.17257 7.78451 1.38006 7.42107 1.69452L7.42096 1.69461C7.01817 2.04333 6.79169 2.46667 6.73837 2.91256C6.68582 3.35202 6.80619 3.77248 7.02338 4.11777C7.44797 4.79282 8.3066 5.26827 9.21391 5.05028L9.21398 5.05026C9.40201 5.00506 9.56845 4.94997 9.7074 4.87869C9.84345 4.80889 9.9895 4.705 10.0861 4.54349C10.3173 4.15697 10.095 3.80046 9.99775 3.66756C9.94072 3.58963 9.87612 3.51833 9.82334 3.46202C9.82584 3.46244 9.82836 3.46287 9.83091 3.4633C9.8389 3.46465 9.84717 3.46605 9.85579 3.4675C9.89935 3.47484 9.95254 3.48359 10.0064 3.48985L10.0065 3.48986C10.3973 3.53515 10.8035 3.93887 10.911 4.53434C11.01 5.08241 10.8252 5.68839 10.1375 6.04987L10.1375 6.04987C9.62883 6.31731 8.75859 6.31211 7.94769 5.91761ZM9.64161 3.45246L9.64168 3.45218L9.64161 3.45246Z" fill="#03423E" stroke="black"/>
<mask id="path-4-inside-2_373_2196" fill="white">
<path d="M31.4144 26.9678C31.8752 25.149 31.9606 22.7695 30.7874 20.609C29.8465 18.876 28.0911 17.277 25.0626 16.209L24.6883 16.0769L24.9569 15.7974C24.9769 15.7765 31.9888 8.54492 26.232 6.97453C25.9512 6.91951 21.6595 6.15989 20.6489 11.0639L20.2795 12.8561L20.1143 11.0359C20.1125 11.0182 19.6302 4.91608 13.7343 1.70129C12.1549 0.840165 10.2575 0.376031 8.73782 0.546606C8.23486 0.60328 7.77662 0.729281 7.3904 0.933696C7.01347 1.13343 6.70245 1.40884 6.48379 1.76897C6.17858 2.27162 6.04733 2.94676 6.15623 3.81862C6.20937 4.24478 6.34208 4.61894 6.53025 4.94056C6.85985 5.50345 7.36165 5.9131 7.91078 6.16787C8.45876 6.42153 9.05261 6.5203 9.56835 6.46252C9.81809 6.43446 10.0469 6.36982 10.2392 6.26885C10.6544 6.05068 10.9135 5.74748 11.0482 5.41761C11.1757 5.10535 11.194 4.76558 11.1292 4.44781C11.0645 4.12977 10.9172 3.8365 10.714 3.61696C10.5264 3.41474 10.2911 3.2769 10.0315 3.24691C9.99378 3.24251 9.93279 3.23206 9.87007 3.2216C9.68828 3.19189 9.47601 3.15585 9.41909 3.3908C9.41706 3.39988 9.51143 3.47636 9.60523 3.57485C9.7452 3.72287 9.89069 3.87557 9.93976 4.05825C10.0228 4.36749 9.87326 4.64122 9.16383 4.8118C8.69281 4.92487 8.22819 4.82666 7.84777 4.59831C7.57654 4.43571 7.34771 4.20681 7.19061 3.94214C7.03176 3.67445 6.94465 3.36796 6.95858 3.05323C6.9763 2.64907 7.15896 2.23749 7.56725 1.88396C7.87971 1.61269 8.30456 1.41681 8.75351 1.30539C9.21901 1.18956 9.71761 1.16288 10.1471 1.23606C11.8781 1.53126 13.0008 2.22731 13.6893 3.10027C14.5675 4.21396 14.7295 5.60524 14.5442 6.82018C14.1781 9.22143 11.897 12.2654 9.27041 15.7701C3.83801 23.0196 -3.09833 32.2757 2.81089 41.4298C4.2524 43.6627 6.07782 45.5382 8.24677 46.9113C10.2978 48.2099 12.6593 49.0603 15.2964 49.3401C19.0009 49.7329 22.765 49.3624 26.1066 47.9766C29.0607 46.7515 31.6882 44.7304 33.6551 41.7382C38.696 34.0706 36.2067 27.424 34.9813 25.0312C34.9859 25.2203 34.9885 25.4117 34.9891 25.6054C35.0054 30.392 33.8212 35.6432 31.1434 39.6088C28.9251 42.8943 25.6861 45.2991 21.2611 45.8414C17.5246 46.2992 13.7184 45.4716 10.7305 43.5081C7.97525 41.6972 5.91549 38.9229 5.24526 35.3029C4.56109 31.6097 5.44534 28.2171 7.37268 25.5738C9.38366 22.8154 12.5295 20.8753 16.2143 20.2629C19.6694 19.6887 22.7243 20.1358 25.2859 21.3347C27.8652 22.5422 29.9392 24.5113 31.4144 26.9664V26.9678ZM31.2672 20.3746C32.6547 22.9296 32.3869 25.7565 31.7582 27.7244L31.5657 28.3266L31.2593 27.7673C29.823 25.1443 27.7148 23.0432 25.0472 21.7942C22.5864 20.642 19.6436 20.2136 16.3075 20.7682C12.7673 21.3567 9.74636 23.2185 7.81699 25.8649C5.96776 28.4015 5.1201 31.6617 5.77842 35.2154C6.42194 38.691 8.39661 41.3525 11.0377 43.0882C13.9167 44.9802 17.5879 45.7773 21.194 45.3354C25.4398 44.8152 28.5531 42.4995 30.6898 39.335C33.3083 35.4569 34.4667 30.307 34.4507 25.606C34.4499 25.3322 34.4446 25.0568 34.4354 24.7809C34.4263 24.5129 34.4127 24.2397 34.3947 23.9627L34.3308 22.9764L34.8913 23.8105C34.9075 23.8345 40.619 32.115 34.1142 42.0087C32.0855 45.0947 29.3732 47.1804 26.3226 48.4454C22.889 49.8694 19.03 50.251 15.2377 49.8485C12.5118 49.5593 10.0696 48.6792 7.94708 47.3356C5.71134 45.9201 3.83191 43.9906 2.35062 41.6961C-3.74388 32.2551 3.30805 22.8443 8.83133 15.4738C11.417 12.0233 13.6623 9.02693 14.0099 6.74811C14.1778 5.64817 14.0364 4.39555 13.2564 3.40649C12.6436 2.62927 11.6299 2.00749 10.0524 1.73842C9.70019 1.67845 9.28464 1.70183 8.89144 1.79977C8.52206 1.89167 8.17737 2.04849 7.9314 2.26143C7.64014 2.5129 7.51033 2.79819 7.49813 3.07331C7.48855 3.28928 7.55041 3.50277 7.66279 3.69178C7.77691 3.88381 7.94186 4.04916 8.13613 4.16581C8.39835 4.32291 8.71517 4.39142 9.03199 4.31549C9.33662 4.24203 9.42257 4.20516 9.41706 4.18397C9.4005 4.12125 9.30148 4.01698 9.20594 3.91683H9.20478C9.01544 3.7182 8.83336 3.52671 8.89406 3.27663C9.06655 2.56599 9.55006 2.64771 9.96416 2.71759L9.96532 2.71869C10.0042 2.72529 10.0429 2.73189 10.0986 2.73822C10.4962 2.78417 10.8481 2.98583 11.1214 3.28048C11.3871 3.56743 11.5785 3.94544 11.6612 4.35152C11.7437 4.75732 11.719 5.19478 11.5529 5.60168C11.3755 6.03664 11.0386 6.43364 10.5031 6.71509C10.2464 6.84989 9.94993 6.93518 9.63369 6.97067C9.02067 7.03945 8.31937 6.92391 7.67586 6.62595C7.03379 6.32855 6.4472 5.84873 6.06069 5.18872C5.83853 4.80932 5.68288 4.37215 5.62132 3.87859C5.4979 2.89146 5.65617 2.11122 6.01858 1.51449C6.28865 1.06961 6.66993 0.730663 7.1302 0.486907C7.58119 0.248102 8.1068 0.101729 8.67626 0.037901C10.3071 -0.145054 12.33 0.346039 14.0044 1.25861C18.5102 3.71544 19.9827 7.79246 20.4485 9.80056C22.0161 5.54582 26.3467 6.47352 26.3601 6.47628L26.3781 6.48013C32.2519 8.07858 26.8941 14.4512 25.6161 15.8628C28.5668 16.9801 30.3103 18.6094 31.2686 20.374L31.2672 20.3746Z"/>
</mask>
<path d="M31.4144 26.9678C31.8752 25.149 31.9606 22.7695 30.7874 20.609C29.8465 18.876 28.0911 17.277 25.0626 16.209L24.6883 16.0769L24.9569 15.7974C24.9769 15.7765 31.9888 8.54492 26.232 6.97453C25.9512 6.91951 21.6595 6.15989 20.6489 11.0639L20.2795 12.8561L20.1143 11.0359C20.1125 11.0182 19.6302 4.91608 13.7343 1.70129C12.1549 0.840165 10.2575 0.376031 8.73782 0.546606C8.23486 0.60328 7.77662 0.729281 7.3904 0.933696C7.01347 1.13343 6.70245 1.40884 6.48379 1.76897C6.17858 2.27162 6.04733 2.94676 6.15623 3.81862C6.20937 4.24478 6.34208 4.61894 6.53025 4.94056C6.85985 5.50345 7.36165 5.9131 7.91078 6.16787C8.45876 6.42153 9.05261 6.5203 9.56835 6.46252C9.81809 6.43446 10.0469 6.36982 10.2392 6.26885C10.6544 6.05068 10.9135 5.74748 11.0482 5.41761C11.1757 5.10535 11.194 4.76558 11.1292 4.44781C11.0645 4.12977 10.9172 3.8365 10.714 3.61696C10.5264 3.41474 10.2911 3.2769 10.0315 3.24691C9.99378 3.24251 9.93279 3.23206 9.87007 3.2216C9.68828 3.19189 9.47601 3.15585 9.41909 3.3908C9.41706 3.39988 9.51143 3.47636 9.60523 3.57485C9.7452 3.72287 9.89069 3.87557 9.93976 4.05825C10.0228 4.36749 9.87326 4.64122 9.16383 4.8118C8.69281 4.92487 8.22819 4.82666 7.84777 4.59831C7.57654 4.43571 7.34771 4.20681 7.19061 3.94214C7.03176 3.67445 6.94465 3.36796 6.95858 3.05323C6.9763 2.64907 7.15896 2.23749 7.56725 1.88396C7.87971 1.61269 8.30456 1.41681 8.75351 1.30539C9.21901 1.18956 9.71761 1.16288 10.1471 1.23606C11.8781 1.53126 13.0008 2.22731 13.6893 3.10027C14.5675 4.21396 14.7295 5.60524 14.5442 6.82018C14.1781 9.22143 11.897 12.2654 9.27041 15.7701C3.83801 23.0196 -3.09833 32.2757 2.81089 41.4298C4.2524 43.6627 6.07782 45.5382 8.24677 46.9113C10.2978 48.2099 12.6593 49.0603 15.2964 49.3401C19.0009 49.7329 22.765 49.3624 26.1066 47.9766C29.0607 46.7515 31.6882 44.7304 33.6551 41.7382C38.696 34.0706 36.2067 27.424 34.9813 25.0312C34.9859 25.2203 34.9885 25.4117 34.9891 25.6054C35.0054 30.392 33.8212 35.6432 31.1434 39.6088C28.9251 42.8943 25.6861 45.2991 21.2611 45.8414C17.5246 46.2992 13.7184 45.4716 10.7305 43.5081C7.97525 41.6972 5.91549 38.9229 5.24526 35.3029C4.56109 31.6097 5.44534 28.2171 7.37268 25.5738C9.38366 22.8154 12.5295 20.8753 16.2143 20.2629C19.6694 19.6887 22.7243 20.1358 25.2859 21.3347C27.8652 22.5422 29.9392 24.5113 31.4144 26.9664V26.9678ZM31.2672 20.3746C32.6547 22.9296 32.3869 25.7565 31.7582 27.7244L31.5657 28.3266L31.2593 27.7673C29.823 25.1443 27.7148 23.0432 25.0472 21.7942C22.5864 20.642 19.6436 20.2136 16.3075 20.7682C12.7673 21.3567 9.74636 23.2185 7.81699 25.8649C5.96776 28.4015 5.1201 31.6617 5.77842 35.2154C6.42194 38.691 8.39661 41.3525 11.0377 43.0882C13.9167 44.9802 17.5879 45.7773 21.194 45.3354C25.4398 44.8152 28.5531 42.4995 30.6898 39.335C33.3083 35.4569 34.4667 30.307 34.4507 25.606C34.4499 25.3322 34.4446 25.0568 34.4354 24.7809C34.4263 24.5129 34.4127 24.2397 34.3947 23.9627L34.3308 22.9764L34.8913 23.8105C34.9075 23.8345 40.619 32.115 34.1142 42.0087C32.0855 45.0947 29.3732 47.1804 26.3226 48.4454C22.889 49.8694 19.03 50.251 15.2377 49.8485C12.5118 49.5593 10.0696 48.6792 7.94708 47.3356C5.71134 45.9201 3.83191 43.9906 2.35062 41.6961C-3.74388 32.2551 3.30805 22.8443 8.83133 15.4738C11.417 12.0233 13.6623 9.02693 14.0099 6.74811C14.1778 5.64817 14.0364 4.39555 13.2564 3.40649C12.6436 2.62927 11.6299 2.00749 10.0524 1.73842C9.70019 1.67845 9.28464 1.70183 8.89144 1.79977C8.52206 1.89167 8.17737 2.04849 7.9314 2.26143C7.64014 2.5129 7.51033 2.79819 7.49813 3.07331C7.48855 3.28928 7.55041 3.50277 7.66279 3.69178C7.77691 3.88381 7.94186 4.04916 8.13613 4.16581C8.39835 4.32291 8.71517 4.39142 9.03199 4.31549C9.33662 4.24203 9.42257 4.20516 9.41706 4.18397C9.4005 4.12125 9.30148 4.01698 9.20594 3.91683H9.20478C9.01544 3.7182 8.83336 3.52671 8.89406 3.27663C9.06655 2.56599 9.55006 2.64771 9.96416 2.71759L9.96532 2.71869C10.0042 2.72529 10.0429 2.73189 10.0986 2.73822C10.4962 2.78417 10.8481 2.98583 11.1214 3.28048C11.3871 3.56743 11.5785 3.94544 11.6612 4.35152C11.7437 4.75732 11.719 5.19478 11.5529 5.60168C11.3755 6.03664 11.0386 6.43364 10.5031 6.71509C10.2464 6.84989 9.94993 6.93518 9.63369 6.97067C9.02067 7.03945 8.31937 6.92391 7.67586 6.62595C7.03379 6.32855 6.4472 5.84873 6.06069 5.18872C5.83853 4.80932 5.68288 4.37215 5.62132 3.87859C5.4979 2.89146 5.65617 2.11122 6.01858 1.51449C6.28865 1.06961 6.66993 0.730663 7.1302 0.486907C7.58119 0.248102 8.1068 0.101729 8.67626 0.037901C10.3071 -0.145054 12.33 0.346039 14.0044 1.25861C18.5102 3.71544 19.9827 7.79246 20.4485 9.80056C22.0161 5.54582 26.3467 6.47352 26.3601 6.47628L26.3781 6.48013C32.2519 8.07858 26.8941 14.4512 25.6161 15.8628C28.5668 16.9801 30.3103 18.6094 31.2686 20.374L31.2672 20.3746Z" fill="#03423E" stroke="black" stroke-width="2" mask="url(#path-4-inside-2_373_2196)"/>
<path d="M126.021 20.0235C119.218 18.8925 113.927 21.6751 110.885 26.3667C110.609 24.9663 110.588 23.314 111.165 21.7235C111.897 19.7026 113.622 17.7062 117.208 16.4413L117.944 16.1818L117.401 15.6218L117.401 15.6217L117.401 15.6217L117.4 15.6211L117.397 15.6177L117.383 15.6031C117.37 15.5898 117.351 15.5696 117.326 15.5429C117.276 15.4894 117.203 15.41 117.111 15.3078C116.928 15.1033 116.672 14.8084 116.383 14.4492C115.803 13.7273 115.103 12.7606 114.596 11.7547C114.08 10.7314 113.806 9.75431 113.957 8.97652C114.093 8.27109 114.606 7.60072 116.011 7.21427C116.013 7.21394 116.015 7.21357 116.017 7.21317C116.023 7.21214 116.029 7.21091 116.037 7.2095C116.067 7.20436 116.112 7.19694 116.172 7.18899C116.291 7.17306 116.466 7.15513 116.681 7.14882C117.114 7.13615 117.694 7.17085 118.299 7.35427C118.902 7.53673 119.525 7.86505 120.061 8.44088C120.597 9.01597 121.067 9.86221 121.325 11.1161L122.311 11.0547C122.313 11.0549 122.313 11.0549 122.313 11.0549L122.313 11.0545L122.314 11.0536L122.314 11.0438C122.315 11.0343 122.317 11.0191 122.319 10.9984C122.324 10.957 122.331 10.8937 122.343 10.8106C122.367 10.6445 122.407 10.3999 122.475 10.0945C122.609 9.4833 122.85 8.63213 123.272 7.68168C124.115 5.78237 125.678 3.49581 128.569 1.91957C130.247 1.00472 132.26 0.566396 133.742 0.834185C134.475 0.966593 135.035 1.26258 135.388 1.71067C135.736 2.15258 135.936 2.81185 135.814 3.78702C135.685 4.82353 135.037 5.53479 134.251 5.91761C133.44 6.31211 132.569 6.31731 132.061 6.04987L131.828 6.49244L132.061 6.04987C131.373 5.68839 131.188 5.08241 131.287 4.53434C131.395 3.93887 131.801 3.53515 132.192 3.48986L132.192 3.48984C132.246 3.48359 132.299 3.47484 132.342 3.4675C132.351 3.46605 132.359 3.46465 132.367 3.4633C132.37 3.46287 132.372 3.46244 132.375 3.46202C132.322 3.51833 132.258 3.58963 132.2 3.66756C132.103 3.80046 131.881 4.15697 132.112 4.54349C132.209 4.705 132.355 4.80889 132.491 4.87869C132.63 4.94997 132.796 5.00506 132.984 5.05026L132.984 5.05028C133.892 5.26827 134.75 4.79282 135.175 4.11777C135.392 3.77248 135.512 3.35203 135.46 2.91256C135.407 2.46667 135.18 2.04333 134.777 1.69461L134.777 1.69452C134.414 1.38006 133.937 1.17257 133.463 1.05918C132.986 0.945255 132.473 0.916673 132.015 0.994857C130.023 1.33482 128.761 2.20759 128.057 3.33798C127.363 4.45373 127.258 5.74764 127.428 6.86008C127.58 7.85504 128.038 8.92632 128.671 10.0462C129.306 11.1707 130.135 12.3775 131.058 13.646C131.599 14.3892 132.172 15.1535 132.76 15.938C134.192 17.8487 135.714 19.8798 137.086 22.0207C140.96 28.0626 143.455 34.698 139.199 41.2923C136.424 45.5898 132.223 48.5308 126.88 49.0976L126.933 49.5948L126.88 49.0976C119.927 49.8353 112.849 47.8608 108.733 41.5994L108.315 41.8741L108.733 41.5994C105.606 36.8441 105.425 32.4976 106.012 29.3439C106.254 28.0434 106.627 26.943 106.982 26.0991C107.04 30.3513 108.033 34.9315 110.179 38.6482C112.415 42.5213 115.919 45.4739 120.911 46.0856C128.145 46.9717 135.747 43.0866 137.18 35.3512C138.608 27.6391 133.338 21.2399 126.021 20.0235ZM132.557 3.45246C132.557 3.45215 132.556 3.45183 132.556 3.45151C132.556 3.45174 132.556 3.45196 132.557 3.45218L132.557 3.45246Z" fill="#03423E" stroke="black"/>
<mask id="path-6-inside-3_373_2196" fill="white">
<path d="M110.441 27.7249C109.812 25.7567 109.544 22.9301 110.932 20.3751C111.89 18.6104 113.633 16.9812 116.584 15.8639C115.306 14.4523 109.949 8.07966 115.822 6.48121L115.84 6.47735C115.853 6.4746 120.184 5.5469 121.752 9.80164C122.217 7.79353 123.69 3.71624 128.196 1.25969C129.87 0.34684 131.893 -0.144254 133.524 0.0389766C134.093 0.102805 134.619 0.249164 135.07 0.487969C135.53 0.731726 135.911 1.07068 136.182 1.51555C136.544 2.11201 136.702 2.89226 136.579 3.87966C136.517 4.37323 136.361 4.81039 136.139 5.18978C135.753 5.85007 135.166 6.32988 134.524 6.62702C133.881 6.92497 133.18 7.04052 132.566 6.97174C132.25 6.93624 131.953 6.85097 131.697 6.71616C131.162 6.43471 130.825 6.03771 130.647 5.60274C130.481 5.19584 130.456 4.7584 130.539 4.35259C130.622 3.94679 130.813 3.5685 131.079 3.28155C131.352 2.98689 131.704 2.78523 132.102 2.73928C132.157 2.73296 132.196 2.72635 132.235 2.71975L132.236 2.71865C132.65 2.64877 133.134 2.56678 133.306 3.27769C133.367 3.52777 133.184 3.71926 132.995 3.9179H132.994C132.899 4.01804 132.8 4.12232 132.783 4.18395C132.777 4.20596 132.863 4.24281 133.168 4.31627C133.485 4.3922 133.802 4.32398 134.064 4.16689C134.258 4.05024 134.423 3.88461 134.537 3.69286C134.649 3.50385 134.711 3.29008 134.702 3.07439C134.69 2.79926 134.56 2.51396 134.269 2.26195C134.023 2.04955 133.678 1.89274 133.308 1.80085C132.915 1.70291 132.5 1.67952 132.147 1.7395C130.57 2.00857 129.556 2.63034 128.944 3.40755C128.163 4.39661 128.022 5.64923 128.19 6.74917C128.538 9.02799 130.783 12.0243 133.369 15.4749C138.892 22.8454 145.944 32.2562 139.849 41.6972C138.368 43.992 136.489 45.9214 134.253 47.3366C132.13 48.6803 129.688 49.5604 126.962 49.8496C123.17 50.2518 119.311 49.8702 115.877 48.4465C112.827 47.1812 110.114 45.0955 108.086 42.0097C101.581 32.1161 107.293 23.8355 107.309 23.8116L107.869 22.9774L107.805 23.9637C107.787 24.2411 107.774 24.5143 107.765 24.782C107.755 25.0579 107.75 25.3333 107.749 25.607C107.733 30.308 108.892 35.458 111.51 39.3361C113.647 42.5005 116.76 44.8162 121.006 45.3365C124.612 45.7783 128.283 44.9813 131.162 43.0893C133.803 41.3536 135.778 38.6921 136.421 35.2165C137.079 31.6627 136.232 28.4025 134.383 25.8659C132.454 23.2195 129.433 21.3578 125.892 20.7693C122.556 20.2147 119.613 20.643 117.153 21.7952C114.485 23.044 112.377 25.1451 110.941 27.7684L110.635 28.3277L110.442 27.7255L110.441 27.7249ZM111.411 20.6092C110.238 22.77 110.323 25.1495 110.784 26.9681C112.259 24.5129 114.333 22.5438 116.913 21.3363C119.474 20.1371 122.529 19.69 125.984 20.2645C129.669 20.8769 132.815 22.817 134.826 25.5754C136.753 28.2188 137.637 31.6113 136.953 35.3045C136.283 38.9245 134.223 41.6989 131.468 43.5097C128.48 45.4732 124.674 46.3008 120.937 45.843C116.512 45.301 113.273 42.8959 111.055 39.6104C108.378 35.6451 107.193 30.3939 107.209 25.607C107.21 25.4134 107.213 25.2219 107.217 25.0329C105.992 27.4256 103.502 34.0722 108.543 41.7398C110.51 44.7321 113.138 46.7531 116.092 47.9782C119.433 49.364 123.198 49.7346 126.902 49.3417C129.539 49.0619 131.9 48.2112 133.951 46.9129C136.12 45.5395 137.946 43.6643 139.387 41.4314C145.296 32.2776 138.36 23.0212 132.928 15.7718C130.301 12.267 128.02 9.22306 127.654 6.8218C127.469 5.60687 127.631 4.21559 128.509 3.1019C129.197 2.22894 130.32 1.53288 132.051 1.23767C132.481 1.16449 132.979 1.19118 133.445 1.307C133.894 1.4187 134.318 1.61431 134.631 1.88476C135.039 2.23939 135.222 2.65097 135.24 3.05512C135.253 3.36958 135.166 3.67607 135.008 3.94404C134.85 4.2087 134.621 4.43761 134.35 4.6002C133.97 4.82855 133.505 4.92649 133.035 4.81369C132.325 4.64312 132.175 4.36937 132.258 4.05986C132.307 3.87718 132.453 3.7245 132.593 3.57703C132.687 3.47826 132.781 3.4015 132.779 3.39269C132.722 3.15774 132.51 3.1935 132.328 3.22432C132.265 3.23395 132.204 3.24441 132.167 3.24881C131.907 3.2788 131.672 3.41636 131.484 3.61885C131.281 3.8384 131.134 4.13167 131.069 4.44971C131.004 4.76775 131.022 5.10752 131.15 5.41951C131.285 5.74938 131.544 6.05228 131.959 6.27073C132.151 6.3717 132.38 6.43635 132.63 6.46441C133.146 6.52219 133.739 6.42342 134.287 6.16976C134.837 5.91528 135.339 5.50535 135.668 4.94245C135.856 4.62084 135.989 4.24668 136.042 3.82052C136.151 2.94866 136.02 2.27351 135.714 1.77087C135.496 1.41073 135.185 1.13505 134.808 0.935591C134.422 0.731176 133.963 0.6049 133.46 0.548501C131.941 0.377926 130.043 0.842322 128.464 1.70317C122.568 4.91796 122.085 11.0201 122.084 11.0377L121.919 12.8579L121.549 11.0658C120.539 6.16178 116.247 6.9214 115.966 6.97642C110.209 8.54681 117.221 15.7786 117.241 15.7993L117.51 16.0788L117.136 16.2108C114.107 17.2786 112.352 18.8779 111.411 20.6108L111.411 20.6092Z"/>
</mask>
<path d="M110.441 27.7249C109.812 25.7567 109.544 22.9301 110.932 20.3751C111.89 18.6104 113.633 16.9812 116.584 15.8639C115.306 14.4523 109.949 8.07966 115.822 6.48121L115.84 6.47735C115.853 6.4746 120.184 5.5469 121.752 9.80164C122.217 7.79353 123.69 3.71624 128.196 1.25969C129.87 0.34684 131.893 -0.144254 133.524 0.0389766C134.093 0.102805 134.619 0.249164 135.07 0.487969C135.53 0.731726 135.911 1.07068 136.182 1.51555C136.544 2.11201 136.702 2.89226 136.579 3.87966C136.517 4.37323 136.361 4.81039 136.139 5.18978C135.753 5.85007 135.166 6.32988 134.524 6.62702C133.881 6.92497 133.18 7.04052 132.566 6.97174C132.25 6.93624 131.953 6.85097 131.697 6.71616C131.162 6.43471 130.825 6.03771 130.647 5.60274C130.481 5.19584 130.456 4.7584 130.539 4.35259C130.622 3.94679 130.813 3.5685 131.079 3.28155C131.352 2.98689 131.704 2.78523 132.102 2.73928C132.157 2.73296 132.196 2.72635 132.235 2.71975L132.236 2.71865C132.65 2.64877 133.134 2.56678 133.306 3.27769C133.367 3.52777 133.184 3.71926 132.995 3.9179H132.994C132.899 4.01804 132.8 4.12232 132.783 4.18395C132.777 4.20596 132.863 4.24281 133.168 4.31627C133.485 4.3922 133.802 4.32398 134.064 4.16689C134.258 4.05024 134.423 3.88461 134.537 3.69286C134.649 3.50385 134.711 3.29008 134.702 3.07439C134.69 2.79926 134.56 2.51396 134.269 2.26195C134.023 2.04955 133.678 1.89274 133.308 1.80085C132.915 1.70291 132.5 1.67952 132.147 1.7395C130.57 2.00857 129.556 2.63034 128.944 3.40755C128.163 4.39661 128.022 5.64923 128.19 6.74917C128.538 9.02799 130.783 12.0243 133.369 15.4749C138.892 22.8454 145.944 32.2562 139.849 41.6972C138.368 43.992 136.489 45.9214 134.253 47.3366C132.13 48.6803 129.688 49.5604 126.962 49.8496C123.17 50.2518 119.311 49.8702 115.877 48.4465C112.827 47.1812 110.114 45.0955 108.086 42.0097C101.581 32.1161 107.293 23.8355 107.309 23.8116L107.869 22.9774L107.805 23.9637C107.787 24.2411 107.774 24.5143 107.765 24.782C107.755 25.0579 107.75 25.3333 107.749 25.607C107.733 30.308 108.892 35.458 111.51 39.3361C113.647 42.5005 116.76 44.8162 121.006 45.3365C124.612 45.7783 128.283 44.9813 131.162 43.0893C133.803 41.3536 135.778 38.6921 136.421 35.2165C137.079 31.6627 136.232 28.4025 134.383 25.8659C132.454 23.2195 129.433 21.3578 125.892 20.7693C122.556 20.2147 119.613 20.643 117.153 21.7952C114.485 23.044 112.377 25.1451 110.941 27.7684L110.635 28.3277L110.442 27.7255L110.441 27.7249ZM111.411 20.6092C110.238 22.77 110.323 25.1495 110.784 26.9681C112.259 24.5129 114.333 22.5438 116.913 21.3363C119.474 20.1371 122.529 19.69 125.984 20.2645C129.669 20.8769 132.815 22.817 134.826 25.5754C136.753 28.2188 137.637 31.6113 136.953 35.3045C136.283 38.9245 134.223 41.6989 131.468 43.5097C128.48 45.4732 124.674 46.3008 120.937 45.843C116.512 45.301 113.273 42.8959 111.055 39.6104C108.378 35.6451 107.193 30.3939 107.209 25.607C107.21 25.4134 107.213 25.2219 107.217 25.0329C105.992 27.4256 103.502 34.0722 108.543 41.7398C110.51 44.7321 113.138 46.7531 116.092 47.9782C119.433 49.364 123.198 49.7346 126.902 49.3417C129.539 49.0619 131.9 48.2112 133.951 46.9129C136.12 45.5395 137.946 43.6643 139.387 41.4314C145.296 32.2776 138.36 23.0212 132.928 15.7718C130.301 12.267 128.02 9.22306 127.654 6.8218C127.469 5.60687 127.631 4.21559 128.509 3.1019C129.197 2.22894 130.32 1.53288 132.051 1.23767C132.481 1.16449 132.979 1.19118 133.445 1.307C133.894 1.4187 134.318 1.61431 134.631 1.88476C135.039 2.23939 135.222 2.65097 135.24 3.05512C135.253 3.36958 135.166 3.67607 135.008 3.94404C134.85 4.2087 134.621 4.43761 134.35 4.6002C133.97 4.82855 133.505 4.92649 133.035 4.81369C132.325 4.64312 132.175 4.36937 132.258 4.05986C132.307 3.87718 132.453 3.7245 132.593 3.57703C132.687 3.47826 132.781 3.4015 132.779 3.39269C132.722 3.15774 132.51 3.1935 132.328 3.22432C132.265 3.23395 132.204 3.24441 132.167 3.24881C131.907 3.2788 131.672 3.41636 131.484 3.61885C131.281 3.8384 131.134 4.13167 131.069 4.44971C131.004 4.76775 131.022 5.10752 131.15 5.41951C131.285 5.74938 131.544 6.05228 131.959 6.27073C132.151 6.3717 132.38 6.43635 132.63 6.46441C133.146 6.52219 133.739 6.42342 134.287 6.16976C134.837 5.91528 135.339 5.50535 135.668 4.94245C135.856 4.62084 135.989 4.24668 136.042 3.82052C136.151 2.94866 136.02 2.27351 135.714 1.77087C135.496 1.41073 135.185 1.13505 134.808 0.935591C134.422 0.731176 133.963 0.6049 133.46 0.548501C131.941 0.377926 130.043 0.842322 128.464 1.70317C122.568 4.91796 122.085 11.0201 122.084 11.0377L121.919 12.8579L121.549 11.0658C120.539 6.16178 116.247 6.9214 115.966 6.97642C110.209 8.54681 117.221 15.7786 117.241 15.7993L117.51 16.0788L117.136 16.2108C114.107 17.2786 112.352 18.8779 111.411 20.6108L111.411 20.6092Z" fill="#03423E" stroke="black" stroke-width="2" mask="url(#path-6-inside-3_373_2196)"/>
</svg>
