<svg width="24" height="21" viewBox="0 0 24 21" xmlns="http://www.w3.org/2000/svg">
<path d="M12.2384 2.34541C10.9296 1.17181 9.21433 0.555517 7.4579 0.627777C5.70147 0.700037 4.04263 1.45514 2.83466 2.73228C1.62669 4.00942 0.965031 5.70768 0.990582 7.46542C1.01613 9.22315 1.72688 10.9015 2.97146 12.143L10.6487 19.8191C11.0704 20.2406 11.6422 20.4774 12.2384 20.4774C12.8346 20.4774 13.4064 20.2406 13.828 19.8191L21.5053 12.143C22.7499 10.9015 23.4606 9.22315 23.4862 7.46542C23.5117 5.70768 22.8501 4.00942 21.6421 2.73228C20.4341 1.45514 18.7753 0.700037 17.0189 0.627777C15.2624 0.555517 13.5472 1.17181 12.2384 2.34541ZM10.9208 4.19362L11.4436 4.71526C11.6544 4.92601 11.9403 5.04441 12.2384 5.04441C12.5365 5.04441 12.8224 4.92601 13.0332 4.71526L13.556 4.19362C13.9708 3.76412 14.467 3.42154 15.0156 3.18586C15.5643 2.95019 16.1543 2.82614 16.7514 2.82095C17.3485 2.81576 17.9407 2.92954 18.4933 3.15564C19.046 3.38175 19.548 3.71566 19.9703 4.13788C20.3925 4.5601 20.7264 5.06219 20.9525 5.61484C21.1786 6.16748 21.2924 6.75963 21.2872 7.35672C21.282 7.95381 21.158 8.54389 20.9223 9.09253C20.6866 9.64116 20.344 10.1374 19.9145 10.5522L12.2384 18.2295L4.56223 10.5522C3.74309 9.70407 3.28983 8.56815 3.30007 7.38909C3.31032 6.21002 3.78325 5.08215 4.617 4.2484C5.45076 3.41464 6.57863 2.94171 7.75769 2.93147C8.93676 2.92122 10.0727 3.37448 10.9208 4.19362Z" fill="#0C6862"/>
</svg>
