<svg width="143" height="50" viewBox="0 0 143 50" fill="none" xmlns="http://www.w3.org/2000/svg">
<path d="M104.815 45.0215C104.914 45.0215 104.97 45.0748 105.012 45.1819C105.041 45.3024 105.055 45.4361 105.055 45.5833C105.055 45.7439 105.027 45.8507 104.956 45.8911C104.885 45.9445 104.829 45.9982 104.758 46.0653C104.532 46.1855 103.981 46.4532 103.106 46.8678C102.216 47.2827 101.241 47.6976 100.154 48.1125C99.0666 48.5405 98.007 48.9153 96.9619 49.2498C95.9167 49.5844 95.126 49.7447 94.6036 49.7447C94.1375 49.7447 93.6853 49.6512 93.2759 49.4639C92.8661 49.2765 92.6826 48.9821 92.7532 48.5675C92.8237 48.3133 92.8946 47.9251 92.9791 47.4302C93.0639 46.9349 93.1345 46.3195 93.205 45.5835C93.2756 44.6737 93.3465 43.6167 93.431 42.4257C93.5155 41.2347 93.5579 39.9103 93.5579 38.4651C93.5579 36.7659 93.4449 35.3477 93.2048 34.237C92.9646 33.1264 92.6399 32.23 92.202 31.5744C91.7641 30.9185 91.2417 30.4505 90.606 30.1828C89.9706 29.9152 89.2502 29.7814 88.417 29.7814C87.6545 29.7814 87.0048 29.9017 86.4821 30.1295C85.9455 30.3702 85.4794 30.6244 85.0839 30.9053C84.3495 31.4407 83.7704 32.123 83.361 32.9525C82.9512 33.7955 82.6829 34.8926 82.5842 36.244C82.556 36.5918 82.5278 36.9398 82.5136 37.2741C82.4997 37.6221 82.4854 37.9965 82.4712 38.4114C82.457 38.8263 82.4288 39.2811 82.4146 39.7763C82.4006 40.2847 82.3864 40.887 82.3864 41.5827C82.3864 43.4426 82.5418 44.7271 82.8667 45.4496C83.1775 46.172 83.7141 46.5333 84.4909 46.5333C84.7592 46.5333 84.9146 46.5201 84.9852 46.5066C85.0557 46.4934 85.1829 46.4667 85.3807 46.4397C85.4512 46.5066 85.5079 46.5869 85.5784 46.6805C85.6772 46.8276 85.6629 47.0015 85.536 47.1889C85.3664 47.3897 84.9709 47.6304 84.3355 47.9248C83.6999 48.2327 83.0081 48.5004 82.2453 48.7546C81.4827 49.0088 80.7341 49.2228 79.9997 49.4102C79.2653 49.5976 78.7144 49.6911 78.3613 49.6911C77.8952 49.6911 77.4715 49.6377 77.0902 49.5307C76.7089 49.4237 76.5112 49.29 76.5112 49.1293C76.5112 48.9419 76.5817 48.7279 76.7086 48.4737C76.8077 48.313 76.9206 47.9383 77.0194 47.3363C77.1181 46.7341 77.2029 45.9715 77.2877 45.0215C77.3725 44.0715 77.443 42.9875 77.5136 41.7434C77.5842 40.499 77.6126 39.1609 77.6126 37.7024C77.6126 36.953 77.5702 36.1235 77.4855 35.2002C77.4009 34.2904 77.189 33.4339 76.864 32.6314C76.5251 31.8283 76.0306 31.146 75.3952 30.5974C74.7456 30.0489 73.8558 29.7812 72.7259 29.7812C72.0621 29.7812 71.4548 29.8612 70.9324 30.0354C70.4097 30.2092 69.9579 30.4236 69.5905 30.6775C68.8564 31.2129 68.235 31.8685 67.7265 32.6578C67.2041 33.4472 66.8652 34.5578 66.6956 36.0028C66.625 36.6584 66.5687 37.3407 66.4978 38.0499C66.4273 38.7592 66.3988 39.5752 66.3988 40.485C66.3988 41.676 66.427 42.6662 66.4978 43.4555C66.5684 44.2448 66.6813 44.8737 66.8509 45.3288C67.0063 45.7836 67.2041 46.0914 67.4442 46.2653C67.6844 46.4394 67.9809 46.5327 68.3482 46.5327C68.7013 46.5327 68.9554 46.506 69.0826 46.4392C69.2519 46.3723 69.3649 46.4659 69.4354 46.7201C69.506 46.9743 69.4918 47.1215 69.393 47.1883C69.2519 47.3088 68.8988 47.5097 68.3482 47.7774C67.7831 48.0448 67.1335 48.326 66.3994 48.6069C65.665 48.888 64.9163 49.1422 64.1538 49.3695C63.3912 49.5835 62.7416 49.6905 62.2189 49.6905C61.6541 49.6905 61.2161 49.6237 60.9057 49.5032C60.5808 49.3827 60.4254 49.2358 60.4254 49.0751C60.4254 49.0481 60.4536 48.9414 60.5244 48.7672C60.595 48.5934 60.6374 48.4462 60.6656 48.3257C60.7927 47.349 60.9199 46.4524 61.0468 45.6094C61.1598 44.7799 61.2446 43.8701 61.3012 42.8934C61.3436 41.9165 61.3857 40.8061 61.4281 39.5482C61.4566 38.2906 61.4705 36.7651 61.4705 34.9721C61.4705 33.246 61.174 31.9615 60.595 31.1455C60.0159 30.3292 59.4087 29.9146 58.7731 29.9146C58.5047 29.9146 58.293 29.9413 58.1095 29.9815C57.926 30.0348 57.7422 30.0753 57.5871 30.1019C57.3751 30.1421 57.2764 30.0486 57.2764 29.8211V29.4862C57.3188 29.4598 57.6437 29.2455 58.2794 28.8306C58.9148 28.416 59.6634 27.9742 60.525 27.5059C61.3866 27.0377 62.2764 26.5961 63.2085 26.2082C64.1404 25.8203 64.903 25.6194 65.4963 25.6194C65.906 25.6194 66.2449 25.7264 66.5274 25.954C66.8097 26.1815 66.9511 26.5829 66.9511 27.1851C66.9511 27.466 66.9372 27.7739 66.923 28.1216C66.909 28.4697 66.8948 28.8309 66.8806 29.2053C66.8666 29.5935 66.8382 29.9548 66.81 30.316C66.7676 30.6772 66.7537 30.9848 66.7537 31.2393C67.2197 30.8247 67.7988 30.2893 68.519 29.6337C69.2391 28.9781 70.0441 28.3492 70.9339 27.7469C71.8234 27.145 72.7982 26.623 73.8433 26.1815C74.8885 25.7399 75.9899 25.5259 77.1622 25.5259C78.6874 25.5259 79.9303 25.954 80.9048 26.7969C81.8652 27.6534 82.3736 29.1385 82.4445 31.2393C82.9672 30.7711 83.6168 30.1955 84.3933 29.5399C85.1559 28.8843 86.0175 28.2553 86.9639 27.6534C87.91 27.0511 88.9127 26.5562 89.9721 26.1413C91.0311 25.7267 92.1047 25.5259 93.2062 25.5259C97.0618 25.5259 98.9827 27.466 98.9827 31.3328C98.9827 31.9618 98.9546 32.6842 98.8837 33.5005C98.8131 34.3168 98.7423 35.173 98.6435 36.0696C98.5445 36.9659 98.46 37.8626 98.3891 38.7454C98.3186 39.6286 98.2904 40.4314 98.2904 41.1541C98.2904 44.4322 99.2084 46.0647 101.03 46.0647C101.327 46.0647 101.652 46.0246 102.019 45.9442C102.386 45.8639 102.753 45.7704 103.121 45.6499C103.488 45.5428 103.827 45.4358 104.124 45.3288C104.42 45.2218 104.632 45.1147 104.759 45.0209H104.816L104.815 45.0215Z" fill="#03423E"/>
<path d="M49.6338 41.1006C49.6338 41.7562 49.648 42.3986 49.6901 43.0141C49.7186 43.6295 49.8316 44.1515 50.029 44.5927C50.2268 45.0343 50.5233 45.3958 50.933 45.6632C51.3285 45.9309 51.8933 46.0646 52.6135 46.0646C52.9809 46.0646 53.4046 46.0245 53.8706 45.9444C54.3364 45.8641 54.7743 45.7571 55.1841 45.6366C55.5935 45.5163 55.9609 45.3823 56.2856 45.2483C56.5963 45.1281 56.7798 45.0343 56.8507 44.9675C56.9494 44.8739 57.02 44.8739 57.0624 44.9675C57.0905 45.0613 57.0905 45.1818 57.0766 45.3287C57.0624 45.4759 57.02 45.6096 56.9494 45.7568C56.8788 45.904 56.8083 45.9975 56.7095 46.0646C56.3706 46.2118 55.7916 46.493 54.9585 46.9076C54.125 47.3225 53.1508 47.7371 52.0208 48.1787C50.9615 48.6202 49.9163 48.995 48.9136 49.2893C47.8967 49.5972 47.0493 49.7444 46.3855 49.7444C45.6229 49.7444 45.0296 49.5169 44.6059 49.0756C44.168 48.634 43.956 48.0851 43.956 47.4295C43.956 47.2023 43.9702 47.0149 43.9842 46.8542C43.9984 46.707 44.0126 46.5062 44.0548 46.252C44.0829 45.9309 44.1395 45.3554 44.2243 44.5127C44.3088 43.6829 44.3936 42.7464 44.4784 41.7161C44.549 40.6858 44.6338 39.6287 44.7044 38.5717C44.7749 37.5147 44.8034 36.6184 44.8034 35.8689V34.2097C44.8034 33.3934 44.7471 32.6575 44.648 32.0288C44.5493 31.3999 44.3797 30.9181 44.1538 30.5701C43.9842 30.3561 43.7725 30.1822 43.5323 30.0347C43.2782 29.8875 42.9675 29.8207 42.6005 29.8207C42.4027 29.8207 42.2049 29.8609 42.0072 29.9412C41.8097 30.0215 41.6541 30.0614 41.5553 30.0614C41.4848 30.0614 41.3857 29.9679 41.2304 29.767C41.075 29.5797 41.089 29.446 41.2583 29.3521C41.4984 29.1918 41.9787 28.9375 42.7131 28.5895C43.4333 28.2418 44.2383 27.8671 45.0999 27.4657C46.0181 27.0241 46.9218 26.6359 47.7834 26.3016C48.645 25.9671 49.2664 25.8064 49.6335 25.8064C50.0009 25.8064 50.2549 25.9134 50.3821 26.1143C50.5093 26.3148 50.5799 26.5424 50.5799 26.7966V26.9839C50.5799 27.305 50.5375 27.8134 50.4388 28.496C50.3397 29.1918 50.2268 30.0479 50.1138 31.0516C49.9866 32.0552 49.8876 33.219 49.7889 34.544C49.6898 35.8687 49.6335 37.3004 49.6335 38.8389V41.1001L49.6338 41.1006Z" fill="#03423E"/>
<path d="M31.4987 27.6506C32.5534 24.35 32.5717 18.5848 25.1562 15.9698C25.1562 15.9698 32.4877 8.41086 26.3021 6.7274C26.3021 6.7274 21.4801 5.69376 20.3833 11.0151C20.3833 11.0151 19.889 4.76304 13.8683 1.48057C10.3766 -0.422988 5.35103 -0.44115 5.88767 3.84908C6.19636 6.31664 8.99489 7.21546 10.3702 6.49244C12.1773 5.54245 11.4194 3.15028 10.0641 2.99318C9.74439 2.95604 9.29022 2.77996 9.15576 3.33433C9.06894 3.69144 10.4315 4.24332 9.0971 4.56411C7.76768 4.88353 6.47485 3.17504 7.74823 2.07263C8.32088 1.57714 9.33523 1.35731 10.0987 1.48772C13.861 2.12958 14.5914 4.71874 14.276 6.78462C13.1681 14.0437 -6.27779 27.8426 2.57951 41.5634C5.42537 45.972 9.75398 49.0101 15.2656 49.5948C22.3362 50.345 29.6311 48.3421 33.8834 41.8741C40.2976 32.1177 34.6625 23.948 34.6625 23.948C34.6979 24.4906 34.7168 25.0441 34.7185 25.6065C34.7476 34.2513 30.8342 44.412 21.226 45.5893C14.177 46.4529 6.88169 42.6647 5.51045 35.2601C4.13921 27.8558 9.1848 21.6929 16.2597 20.5167C23.3342 19.3406 28.6856 22.5149 31.4978 27.6509L31.4987 27.6506Z" fill="#03423E"/>
<path d="M31.4144 26.9678C31.8752 25.149 31.9606 22.7695 30.7874 20.609C29.8465 18.876 28.0911 17.277 25.0626 16.209L24.6883 16.0769L24.9569 15.7974C24.9769 15.7765 31.9888 8.54492 26.232 6.97453C25.9512 6.91951 21.6595 6.15989 20.6489 11.0639L20.2795 12.8561L20.1143 11.0359C20.1125 11.0182 19.6302 4.91608 13.7343 1.70129C12.1549 0.840165 10.2575 0.376031 8.73782 0.546606C8.23486 0.60328 7.77662 0.729281 7.3904 0.933696C7.01347 1.13343 6.70245 1.40884 6.48379 1.76897C6.17858 2.27162 6.04733 2.94676 6.15623 3.81862C6.20937 4.24478 6.34208 4.61894 6.53025 4.94056C6.85985 5.50345 7.36165 5.9131 7.91078 6.16787C8.45876 6.42153 9.05261 6.5203 9.56835 6.46252C9.81809 6.43446 10.0469 6.36982 10.2392 6.26885C10.6544 6.05068 10.9135 5.74748 11.0482 5.41761C11.1757 5.10535 11.194 4.76558 11.1292 4.44781C11.0645 4.12977 10.9172 3.8365 10.714 3.61696C10.5264 3.41474 10.2911 3.2769 10.0315 3.24691C9.99378 3.24251 9.93279 3.23206 9.87007 3.2216C9.68828 3.19189 9.47601 3.15585 9.41909 3.3908C9.41706 3.39988 9.51143 3.47636 9.60523 3.57485C9.7452 3.72287 9.89069 3.87557 9.93976 4.05825C10.0228 4.36749 9.87326 4.64122 9.16383 4.8118C8.69281 4.92487 8.22819 4.82666 7.84777 4.59831C7.57654 4.43571 7.34771 4.20681 7.19061 3.94214C7.03176 3.67445 6.94465 3.36796 6.95858 3.05323C6.9763 2.64907 7.15896 2.23749 7.56725 1.88396C7.87971 1.61269 8.30456 1.41681 8.75351 1.30539C9.21901 1.18956 9.71761 1.16288 10.1471 1.23606C11.8781 1.53126 13.0008 2.22731 13.6893 3.10027C14.5675 4.21396 14.7295 5.60524 14.5442 6.82018C14.1781 9.22143 11.897 12.2654 9.27041 15.7701C3.83801 23.0196 -3.09833 32.2757 2.81089 41.4298C4.2524 43.6627 6.07782 45.5382 8.24677 46.9113C10.2978 48.2099 12.6593 49.0603 15.2964 49.3401C19.0009 49.7329 22.765 49.3624 26.1066 47.9766C29.0607 46.7515 31.6882 44.7304 33.6551 41.7382C38.696 34.0706 36.2067 27.424 34.9813 25.0312C34.9859 25.2203 34.9885 25.4117 34.9891 25.6054C35.0054 30.392 33.8212 35.6432 31.1434 39.6088C28.9251 42.8943 25.6861 45.2991 21.2611 45.8414C17.5246 46.2992 13.7184 45.4716 10.7305 43.5081C7.97525 41.6972 5.91549 38.9229 5.24526 35.3029C4.56109 31.6097 5.44534 28.2171 7.37268 25.5738C9.38366 22.8154 12.5295 20.8753 16.2143 20.2629C19.6694 19.6887 22.7243 20.1358 25.2859 21.3347C27.8652 22.5422 29.9392 24.5113 31.4144 26.9664V26.9678ZM31.2672 20.3746C32.6547 22.9296 32.3869 25.7565 31.7582 27.7244L31.5657 28.3266L31.2593 27.7673C29.823 25.1443 27.7148 23.0432 25.0472 21.7942C22.5864 20.642 19.6436 20.2136 16.3075 20.7682C12.7673 21.3567 9.74636 23.2185 7.81699 25.8649C5.96776 28.4015 5.1201 31.6617 5.77842 35.2154C6.42194 38.691 8.39661 41.3525 11.0377 43.0882C13.9167 44.9802 17.5879 45.7773 21.194 45.3354C25.4398 44.8152 28.5531 42.4995 30.6898 39.335C33.3083 35.4569 34.4667 30.307 34.4507 25.606C34.4499 25.3322 34.4446 25.0568 34.4354 24.7809C34.4263 24.5129 34.4127 24.2397 34.3947 23.9627L34.3308 22.9764L34.8913 23.8105C34.9075 23.8345 40.619 32.115 34.1142 42.0087C32.0855 45.0947 29.3732 47.1804 26.3226 48.4454C22.889 49.8694 19.03 50.251 15.2377 49.8485C12.5118 49.5593 10.0696 48.6792 7.94708 47.3356C5.71134 45.9201 3.83191 43.9906 2.35062 41.6961C-3.74388 32.2551 3.30805 22.8443 8.83133 15.4738C11.417 12.0233 13.6623 9.02693 14.0099 6.74811C14.1778 5.64817 14.0364 4.39555 13.2564 3.40649C12.6436 2.62927 11.6299 2.00749 10.0524 1.73842C9.70019 1.67845 9.28464 1.70183 8.89144 1.79977C8.52206 1.89167 8.17737 2.04849 7.9314 2.26143C7.64014 2.5129 7.51033 2.79819 7.49813 3.07331C7.48855 3.28928 7.55041 3.50277 7.66279 3.69178C7.77691 3.88381 7.94186 4.04916 8.13613 4.16581C8.39835 4.32291 8.71517 4.39142 9.03199 4.31549C9.33662 4.24203 9.42257 4.20516 9.41706 4.18397C9.4005 4.12125 9.30148 4.01698 9.20594 3.91683H9.20478C9.01544 3.7182 8.83336 3.52671 8.89406 3.27663C9.06655 2.56599 9.55006 2.64771 9.96416 2.71759L9.96532 2.71869C10.0042 2.72529 10.0429 2.73189 10.0986 2.73822C10.4962 2.78417 10.8481 2.98583 11.1214 3.28048C11.3871 3.56743 11.5785 3.94544 11.6612 4.35152C11.7437 4.75732 11.719 5.19478 11.5529 5.60168C11.3755 6.03664 11.0386 6.43364 10.5031 6.71509C10.2464 6.84989 9.94993 6.93518 9.63369 6.97067C9.02067 7.03945 8.31937 6.92391 7.67586 6.62595C7.03379 6.32855 6.4472 5.84873 6.06069 5.18872C5.83853 4.80932 5.68288 4.37215 5.62132 3.87859C5.4979 2.89146 5.65617 2.11122 6.01858 1.51449C6.28865 1.06961 6.66993 0.730663 7.1302 0.486907C7.58119 0.248102 8.1068 0.101729 8.67626 0.037901C10.3071 -0.145054 12.33 0.346039 14.0044 1.25861C18.5102 3.71544 19.9827 7.79246 20.4485 9.80056C22.0161 5.54582 26.3467 6.47352 26.3601 6.47628L26.3781 6.48013C32.2519 8.07858 26.8941 14.4512 25.6161 15.8628C28.5668 16.9801 30.3103 18.6094 31.2686 20.374L31.2672 20.3746Z" fill="#03423E"/>
<path d="M110.7 27.6506C109.645 24.35 109.627 18.5848 117.042 15.9698C117.042 15.9698 109.71 8.41086 115.896 6.7274C115.896 6.7274 120.718 5.69376 121.815 11.0151C121.815 11.0151 122.309 4.76304 128.33 1.48057C131.822 -0.422988 136.847 -0.44115 136.311 3.84908C136.002 6.31664 133.203 7.21546 131.828 6.49244C130.021 5.54245 130.779 3.15028 132.134 2.99318C132.454 2.95604 132.908 2.77996 133.042 3.33433C133.129 3.69144 131.767 4.24332 133.101 4.56411C134.431 4.88353 135.723 3.17504 134.45 2.07263C133.877 1.57714 132.863 1.35731 132.1 1.48772C128.337 2.12958 127.607 4.71874 127.922 6.78462C129.03 14.0437 148.476 27.8426 139.619 41.5634C136.773 45.972 132.444 49.0101 126.933 49.5948C119.862 50.345 112.567 48.3421 108.315 41.8741C101.901 32.1177 107.536 23.948 107.536 23.948C107.5 24.4906 107.481 25.0441 107.48 25.6065C107.451 34.2513 111.364 44.412 120.972 45.5893C128.021 46.4529 135.317 42.6647 136.688 35.2601C138.059 27.8558 133.014 21.6929 125.939 20.5167C118.864 19.3406 113.513 22.5149 110.701 27.6509L110.7 27.6506Z" fill="#03423E"/>
<path d="M110.441 27.7249C109.812 25.7567 109.544 22.9301 110.932 20.3751C111.89 18.6104 113.633 16.9812 116.584 15.8639C115.307 14.4523 109.949 8.07966 115.822 6.48121L115.84 6.47735C115.854 6.4746 120.184 5.5469 121.752 9.80164C122.218 7.79353 123.69 3.71624 128.196 1.25969C129.87 0.34684 131.894 -0.144254 133.524 0.0389766C134.094 0.102805 134.619 0.249164 135.07 0.487969C135.53 0.731726 135.911 1.07068 136.182 1.51555C136.544 2.11201 136.703 2.89226 136.579 3.87966C136.517 4.37323 136.362 4.81039 136.14 5.18978C135.754 5.85007 135.167 6.32988 134.525 6.62702C133.881 6.92497 133.18 7.04052 132.567 6.97174C132.25 6.93624 131.954 6.85097 131.697 6.71616C131.162 6.43471 130.825 6.03771 130.648 5.60274C130.481 5.19584 130.457 4.7584 130.539 4.35259C130.622 3.94679 130.813 3.5685 131.079 3.28155C131.352 2.98689 131.704 2.78523 132.102 2.73928C132.157 2.73296 132.196 2.72635 132.235 2.71975L132.236 2.71865C132.65 2.64877 133.134 2.56678 133.306 3.27769C133.367 3.52777 133.185 3.71926 132.996 3.9179H132.994C132.899 4.01804 132.8 4.12232 132.783 4.18395C132.778 4.20596 132.864 4.24281 133.168 4.31627C133.485 4.3922 133.802 4.32398 134.064 4.16689C134.259 4.05024 134.424 3.88461 134.537 3.69286C134.65 3.50385 134.711 3.29008 134.702 3.07439C134.69 2.79926 134.56 2.51396 134.269 2.26195C134.023 2.04955 133.678 1.89274 133.309 1.80085C132.915 1.70291 132.5 1.67952 132.148 1.7395C130.57 2.00857 129.557 2.63034 128.944 3.40755C128.163 4.39661 128.022 5.64923 128.19 6.74917C128.538 9.02799 130.783 12.0243 133.369 15.4749C138.892 22.8454 145.944 32.2562 139.85 41.6972C138.368 43.992 136.489 45.9214 134.253 47.3366C132.131 48.6803 129.688 49.5604 126.962 49.8496C123.17 50.2518 119.311 49.8702 115.878 48.4465C112.827 47.1812 110.115 45.0955 108.086 42.0097C101.581 32.1161 107.293 23.8355 107.309 23.8116L107.87 22.9774L107.805 23.9637C107.787 24.2411 107.774 24.5143 107.765 24.782C107.755 25.0579 107.75 25.3333 107.749 25.607C107.734 30.308 108.892 35.458 111.51 39.3361C113.647 42.5005 116.76 44.8162 121.006 45.3365C124.613 45.7783 128.284 44.9813 131.162 43.0893C133.804 41.3536 135.778 38.6921 136.422 35.2165C137.08 31.6627 136.232 28.4025 134.383 25.8659C132.454 23.2195 129.433 21.3578 125.893 20.7693C122.556 20.2147 119.614 20.643 117.153 21.7952C114.485 23.044 112.377 25.1451 110.941 27.7684L110.635 28.3277L110.442 27.7255L110.441 27.7249ZM111.411 20.6092C110.238 22.77 110.323 25.1495 110.784 26.9681C112.26 24.5129 114.333 22.5438 116.913 21.3363C119.474 20.1371 122.529 19.69 125.984 20.2645C129.669 20.8769 132.815 22.817 134.826 25.5754C136.753 28.2188 137.637 31.6113 136.953 35.3045C136.283 38.9245 134.223 41.6989 131.468 43.5097C128.48 45.4732 124.674 46.3008 120.938 45.843C116.513 45.301 113.274 42.8959 111.055 39.6104C108.378 35.6451 107.194 30.3939 107.21 25.607C107.21 25.4134 107.213 25.2219 107.217 25.0329C105.992 27.4256 103.502 34.0722 108.543 41.7398C110.51 44.7321 113.138 46.7531 116.092 47.9782C119.433 49.364 123.198 49.7346 126.902 49.3417C129.539 49.0619 131.901 48.2112 133.952 46.9129C136.121 45.5395 137.946 43.6643 139.388 41.4314C145.297 32.2776 138.36 23.0212 132.928 15.7718C130.301 12.267 128.02 9.22306 127.654 6.8218C127.469 5.60687 127.631 4.21559 128.509 3.1019C129.198 2.22894 130.32 1.53288 132.051 1.23767C132.481 1.16449 132.979 1.19118 133.445 1.307C133.894 1.4187 134.319 1.61431 134.631 1.88476C135.039 2.23939 135.222 2.65097 135.24 3.05512C135.254 3.36958 135.167 3.67607 135.008 3.94404C134.851 4.2087 134.622 4.43761 134.351 4.6002C133.97 4.82855 133.506 4.92649 133.035 4.81369C132.325 4.64312 132.176 4.36937 132.258 4.05986C132.308 3.87718 132.453 3.7245 132.594 3.57703C132.687 3.47826 132.781 3.4015 132.779 3.39269C132.722 3.15774 132.51 3.1935 132.329 3.22432C132.266 3.23395 132.205 3.24441 132.167 3.24881C131.907 3.2788 131.672 3.41636 131.484 3.61885C131.281 3.8384 131.134 4.13167 131.069 4.44971C131.004 4.76775 131.023 5.10752 131.15 5.41951C131.285 5.74938 131.544 6.05228 131.959 6.27073C132.151 6.3717 132.38 6.43635 132.63 6.46441C133.146 6.52219 133.739 6.42342 134.288 6.16976C134.837 5.91528 135.339 5.50535 135.668 4.94245C135.856 4.62084 135.989 4.24668 136.042 3.82052C136.151 2.94866 136.02 2.27351 135.715 1.77087C135.496 1.41073 135.185 1.13505 134.808 0.935591C134.422 0.731176 133.964 0.6049 133.461 0.548501C131.941 0.377926 130.043 0.842322 128.464 1.70317C122.568 4.91796 122.086 11.0201 122.084 11.0377L121.919 12.8579L121.549 11.0658C120.539 6.16178 116.247 6.9214 115.966 6.97642C110.21 8.54681 117.221 15.7786 117.241 15.7993L117.51 16.0788L117.136 16.2108C114.107 17.2786 112.352 18.8779 111.411 20.6108L111.411 20.6092Z" fill="#03423E"/>
</svg>
